<svg width="157" height="265" xmlns="http://www.w3.org/2000/svg" xmlns:xlink="http://www.w3.org/1999/xlink" xml:space="preserve" overflow="hidden"><defs><clipPath id="clip0"><rect x="374" y="144" width="157" height="265"/></clipPath></defs><g clip-path="url(#clip0)" transform="translate(-374 -144)"><path d="M72.8401 59.8507C73.2337 44.5513 74.0511 27.0068 67.3975 12.6246 65.7489 9.06154 62.4296 3.93176 57.8844 2.76173 55.1657 1.94909 52.2243 2.43176 49.9079 4.07065 47.4583 5.93636 45.6156 8.48543 44.6123 11.3966 42.8939 15.9962 41.9764 20.8563 41.8995 25.7658 41.8072 30.6077 42.3259 35.4419 43.4432 40.154 45.0574 47.6444 47.4691 54.9403 50.6373 61.917 45.6585 64.2318 41.1986 67.5284 37.5251 71.6091 30.1682 79.3027 23.8534 93.4071 23.8564 103.468 18.3798 110.644 16.1214 119.768 17.6185 128.67 19.2172 137.106 24.9015 144.811 32.771 148.245 33.4944 148.562 34.2318 148.845 34.9772 149.101 36.6209 149.673 38.3015 150.145 39.9581 150.683 39.9581 150.683 58.0622 159.202 76.6279 159.202 105.524 159.202 114.738 150.683 114.738 150.683 117.146 149.902 119.606 149.258 121.926 148.245 129.794 144.811 135.48 137.106 137.077 128.67 138.574 119.768 136.316 110.644 130.839 103.468 130.839 93.4071 124.528 79.3067 117.171 71.6091 113.516 67.5477 109.081 64.2635 104.13 61.952 107.304 54.9643 109.719 47.6566 111.334 40.154 112.451 35.4418 112.97 30.6076 112.878 25.7658 112.801 20.8562 111.883 15.9962 110.164 11.3966 109.162 8.48515 107.319 5.93594 104.869 4.07065 102.552 2.43176 99.6109 1.94909 96.8923 2.76172 92.341 3.93676 89.0267 9.06254 87.3731 12.6256 80.7196 27.0078 81.5379 44.5523 81.9326 59.8507Z" fill="#FFFFFF" transform="matrix(1 0 0 1.00049 374 144.189)"/><path d="M54.3723 261.884C48.2393 261.778 42.0254 261.641 36.1512 261.467 16.6933 260.889 9.54714 247.11 20.5211 231.031L51.8174 222.838 51.8174 208.029C69.0914 206.539 86.4625 206.561 103.733 208.095 103.733 213.007 103.733 217.92 103.733 222.833L134.253 231.026C145.226 247.105 138.08 260.884 118.622 261.462 104.947 261.868 89.4304 262.061 77.3883 262.177 70.518 262.119 62.5166 262.027 54.3723 261.884Z" fill="#FEBE69" transform="matrix(1 0 0 1.00049 374 144.189)"/><path d="M39.9551 150.688C38.2295 150.128 36.477 149.639 34.7694 149.033 15.3794 158.078 2.84147 177.385 2.46497 198.777 2.46497 199.041 2.45398 199.306 2.45398 199.571 2.09749 216.819 15.7909 231.09 33.0391 231.447 33.2478 231.451 33.4566 231.453 33.6653 231.454L33.972 231.454 51.8154 222.834 51.8154 208.029C69.0894 206.539 86.4605 206.561 103.731 208.095 103.731 213.007 103.731 217.92 103.731 222.833L120.801 231.509 121.108 231.509C138.364 231.495 152.34 217.496 152.326 200.241 152.326 200.036 152.324 199.831 152.32 199.627 152.32 199.362 152.309 199.098 152.309 198.833 151.938 177.393 139.34 158.054 119.879 149.048 118.181 149.648 116.445 150.133 114.733 150.689 114.733 150.689 105.519 159.208 76.6229 159.208 58.0592 159.207 39.9551 150.688 39.9551 150.688Z" fill="#85807F" transform="matrix(1 0 0 1.00049 374 144.189)"/><path d="M18.5767 229.638C12.9513 237.795 9.9658 249.552 17.8773 257.34 21.6842 261.086 26.9238 262.856 32.1176 263.535 35.3708 263.869 38.6393 264.031 41.9095 264.021 45.6991 264.116 49.4896 264.197 53.2812 264.263 67.5364 264.519 81.7717 264.575 96.028 264.353 103.412 264.24 110.796 264.101 118.177 263.877 123.703 263.709 129.513 262.714 134.171 259.536 138.581 256.621 141.385 251.821 141.758 246.547 142.198 240.509 139.544 234.502 136.189 229.636 135.499 228.52 134.056 228.142 132.908 228.776 131.774 229.452 131.391 230.912 132.047 232.057 134.745 235.974 136.967 240.623 137.004 245.23 137.109 248.859 135.533 252.332 132.734 254.643 131.232 255.851 129.541 256.802 127.728 257.456 125.395 258.281 122.962 258.789 120.494 258.967 113.589 259.499 106.577 259.379 99.654 259.497 86.4569 259.724 73.2757 259.774 60.0796 259.577 52.9801 259.471 45.8812 259.326 38.7831 259.142 33.7262 259.004 28.5805 258.668 24.1671 256.121 23.2542 255.617 22.4049 255.006 21.6372 254.301 20.9141 253.656 20.2741 252.924 19.7318 252.122 18.6782 250.528 18.0215 248.705 17.8163 246.806 17.3457 241.552 19.6798 236.45 22.7123 232.057 23.3684 230.912 22.9857 229.452 21.852 228.776 20.7051 228.134 19.2563 228.514 18.5717 229.636Z" fill="#211715" transform="matrix(1 0 0 1.00049 374 144.189)"/><path d="M109.56 222.958C112.805 222.269 115.993 224.341 116.682 227.586 116.895 228.592 116.847 229.636 116.541 230.618 115.917 232.304 114.81 233.769 113.359 234.831 110.374 237.273 106.662 238.654 102.807 238.758 100.045 238.908 97.3312 237.985 95.2336 236.182 93.2503 234.299 92.383 231.123 93.6649 228.707 94.6731 226.808 96.7344 225.709 98.7757 225.027 102.4 223.821 106.274 223.572 110.022 224.304" fill="#FFFFFF" transform="matrix(1 0 0 1.00049 374 144.189)"/><path d="M44.7512 224.304C48.4997 223.572 52.3738 223.821 55.9979 225.027 58.0392 225.708 60.1005 226.805 61.1087 228.707 62.3897 231.123 61.5224 234.302 59.539 236.182 57.4415 237.986 54.7277 238.909 51.9652 238.758 48.1102 238.654 44.3988 237.273 41.4139 234.831 39.9628 233.769 38.856 232.304 38.2315 230.618 37.2461 227.45 39.0152 224.083 42.1831 223.098 43.1647 222.793 44.2082 222.744 45.2138 222.958" fill="#FFFFFF" transform="matrix(1 0 0 1.00049 374 144.189)"/><path d="M46.2839 150.918C46.2622 153.421 47.2774 155.821 49.0886 157.549 50.7966 159.116 52.7613 160.377 54.8968 161.277 55.4605 161.587 56.1199 161.673 56.7443 161.519 58.0211 161.167 58.7709 159.847 58.419 158.57 58.2527 157.967 57.8572 157.452 57.3168 157.137 56.5175 156.748 55.7072 156.358 54.9268 155.922 54.5271 155.698 54.1345 155.463 53.7548 155.209 53.5749 155.089 53.4011 154.96 53.2242 154.837 52.9834 154.669 53.6349 155.177 53.3101 154.905 53.2182 154.828 53.1243 154.752 53.0334 154.674 52.7242 154.408 52.4331 154.123 52.1621 153.818 52.0891 153.735 52.0192 153.65 51.9463 153.566 51.7304 153.316 52.0242 153.701 52.0761 153.736 51.9232 153.574 51.7974 153.388 51.7034 153.186 51.5995 153.017 51.5026 152.844 51.4127 152.667 51.3531 152.574 51.3052 152.473 51.2698 152.368 51.2838 152.433 51.4696 152.887 51.3607 152.577 51.2122 152.169 51.1028 151.748 51.034 151.319L51.1199 151.957C51.0752 151.611 51.0618 151.263 51.08 150.915 51.0712 149.594 50.0027 148.525 48.6819 148.517 47.3696 148.545 46.3125 149.602 46.2839 150.915Z" fill="#211715" transform="matrix(1 0 0 1.00049 374 144.189)"/><path d="M59.0614 152.72C60.6409 157.524 64.9694 160.894 70.0134 161.248 71.3351 161.242 72.4048 160.172 72.4114 158.85 72.3813 157.539 71.3251 156.482 70.0134 156.452 69.8075 156.437 69.6027 156.417 69.3969 156.391L70.0344 156.477C69.5851 156.415 69.1407 156.322 68.7045 156.198 68.5046 156.142 68.3088 156.079 68.1169 156.009 68.017 155.974 67.9241 155.936 67.8282 155.9 67.5544 155.8 68.3667 156.142 68.001 155.974 67.5886 155.786 67.1881 155.573 66.802 155.335 66.6272 155.226 66.4543 155.112 66.2865 154.992 66.1416 154.893 65.8348 154.593 66.3734 155.071 66.2964 155.003 66.2115 154.943 66.1326 154.872 65.7994 154.594 65.4841 154.295 65.1884 153.977 65.0475 153.826 64.9166 153.668 64.7807 153.512 64.4739 153.159 65.1214 153.987 64.8516 153.607 64.7927 153.523 64.7307 153.44 64.6718 153.355 64.4255 152.999 64.2035 152.627 64.0073 152.242 63.9614 152.15 63.9164 152.057 63.8724 151.964 63.6726 151.53 63.9624 152.122 63.9414 152.14 63.9564 152.127 63.7056 151.492 63.6886 151.44 63.3365 150.163 62.016 149.414 60.739 149.766 59.4621 150.118 58.7123 151.438 59.0644 152.715Z" fill="#211715" transform="matrix(1 0 0 1.00049 374 144.189)"/><path d="M104.051 150.918C104.07 151.266 104.056 151.614 104.011 151.96L104.097 151.322C104.038 151.731 103.938 152.133 103.798 152.521 103.732 152.7 103.557 152.927 103.866 152.374 103.824 152.45 103.792 152.533 103.753 152.611 103.665 152.789 103.569 152.963 103.466 153.133 103.351 153.323 103.22 153.5 103.098 153.686 102.936 153.931 103.423 153.294 103.23 153.517 103.158 153.601 103.09 153.689 103.017 153.772 102.734 154.095 102.428 154.397 102.102 154.677 102.029 154.74 101.955 154.802 101.881 154.862L101.712 154.997 101.969 154.798C101.785 154.905 101.618 155.052 101.441 155.171 101.062 155.427 100.67 155.665 100.272 155.889 99.4731 156.34 98.6448 156.74 97.8185 157.14 96.6808 157.812 96.297 159.276 96.9582 160.42 97.6474 161.535 99.0906 161.914 100.239 161.28 102.373 160.379 104.338 159.118 106.047 157.552 107.859 155.825 108.874 153.424 108.851 150.921 108.851 149.596 107.778 148.523 106.453 148.523 105.129 148.523 104.055 149.596 104.055 150.921Z" fill="#211715" transform="matrix(1 0 0 1.00049 374 144.189)"/><path d="M91.4457 151.445C91.3758 151.662 91.2969 151.874 91.2169 152.087 91.117 152.36 91.4607 151.549 91.2879 151.912 91.2349 152.024 91.183 152.136 91.127 152.247 90.9409 152.614 90.7306 152.969 90.4975 153.309 90.4276 153.409 90.3546 153.509 90.2827 153.609 90.0489 153.932 90.5825 153.246 90.3926 153.466 90.2447 153.639 90.1009 153.812 89.946 153.979 89.6505 154.297 89.3351 154.596 89.0018 154.874 88.9618 154.907 88.8019 155.073 88.761 155.073 88.8249 155.073 89.2605 154.698 88.8988 154.958 88.7143 155.092 88.5255 155.218 88.3323 155.337 87.964 155.566 87.5811 155.771 87.1862 155.95 86.7486 156.15 87.3491 155.862 87.3611 155.879 87.3611 155.879 87.0304 156.005 87.0144 156.011 86.8205 156.077 86.6247 156.141 86.4269 156.2 85.9907 156.325 85.5463 156.418 85.097 156.479L85.7345 156.393C85.5286 156.419 85.3238 156.439 85.118 156.454 83.7936 156.454 82.7199 157.528 82.7199 158.852 82.7199 160.177 83.7936 161.25 85.118 161.25 90.162 160.896 94.4906 157.525 96.0709 152.722 96.4109 151.447 95.6652 150.134 94.3953 149.773 93.1224 149.451 91.822 150.189 91.4457 151.447Z" fill="#211715" transform="matrix(1 0 0 1.00049 374 144.189)"/><path d="M48.5241 60.3114C35.0072 67.3446 25.8237 80.8655 22.4305 95.5853 21.7381 98.5889 26.3613 99.8708 27.0547 96.8603 28.7251 89.7239 31.8001 82.9917 36.1003 77.0566 39.9929 71.7505 45.0778 67.4333 50.9451 64.453 53.6838 63.0271 51.2608 58.8865 48.5241 60.3114Z" fill="#211715" transform="matrix(1 0 0 1.00049 374 144.189)"/><path d="M21.2125 103.041C16.2141 110.102 14.0014 118.762 14.9997 127.355 15.9924 135.078 19.9523 142.111 26.0406 146.964 30.0263 150.074 34.5676 151.476 39.3176 153 42.2632 153.945 43.5252 149.316 40.5926 148.376 36.8836 147.186 33.2267 146.188 29.9823 143.951 27.3556 142.103 25.1311 139.742 23.4437 137.01 19.7633 131.02 18.6021 123.816 20.2134 116.973 21.1629 112.838 22.909 108.929 25.3541 105.462 26.0102 104.317 25.6275 102.857 24.4938 102.181 23.3465 101.54 21.8978 101.92 21.2125 103.041Z" fill="#211715" transform="matrix(1 0 0 1.00049 374 144.189)"/><path d="M80.1341 126.69C78.1657 127.298 73.6394 126.916 73.2657 123.202 73.3087 118.291 78.7812 118.016 81.3491 119.663 83.4523 121.01 84.3176 124.988 80.1341 126.69Z" fill="#211715" transform="matrix(1 0 0 1.00049 374 144.189)"/><path d="M77.769 119.646C77.6933 119.689 77.6152 119.727 77.5352 119.761L78.1087 119.52C77.9852 119.571 77.8556 119.607 77.723 119.626L78.3605 119.54C78.2329 119.554 78.104 119.553 77.9768 119.535L78.6143 119.621C78.5404 119.61 78.4664 119.596 78.3925 119.582 78.1197 119.528 77.8419 119.498 77.5662 119.463 76.2562 119.497 75.2023 120.551 75.1681 121.861L75.2531 122.498C75.3635 122.898 75.576 123.263 75.8696 123.556L76.3552 123.932C76.7225 124.147 77.1406 124.26 77.5662 124.259L77.5782 124.259 76.9367 124.175C77.0316 124.188 77.1245 124.209 77.2185 124.226 77.4752 124.274 77.736 124.303 77.9958 124.334 78.0515 124.341 78.1075 124.345 78.1637 124.347 78.2221 124.347 78.2805 124.344 78.3385 124.338 78.5783 124.313 78.8221 124.283 79.0599 124.238 79.0929 124.232 79.1259 124.225 79.1599 124.217 79.2354 124.197 79.3095 124.172 79.3817 124.143 79.6575 124.041 79.9265 123.922 80.187 123.785 81.0316 123.309 81.4893 122.357 81.3331 121.4 81.3197 121.083 81.2213 120.774 81.0483 120.508L80.6736 120.023C80.3806 119.729 80.0158 119.517 79.6155 119.407L78.978 119.321C78.5527 119.32 78.1349 119.433 77.768 119.648Z" fill="#211715" transform="matrix(1 0 0 1.00049 374 144.189)"/><path d="M52.9874 107.131C52.1881 109.729 52.6876 115.687 57.5836 116.18 64.0543 116.124 64.416 108.915 62.2468 105.531 60.4692 102.76 55.2285 101.616 52.9874 107.131Z" fill="#211715" transform="matrix(1 0 0 1.00049 374 144.189)"/><path d="M101.786 107.131C102.586 109.729 102.086 115.687 97.19 116.181 90.7253 116.124 90.3576 108.91 92.5239 105.531 94.3034 102.76 99.5441 101.616 101.786 107.131Z" fill="#211715" transform="matrix(1 0 0 1.00049 374 144.189)"/><path d="M76.4921 135.543C77.4449 134.552 78.4695 133.631 79.5575 132.79L79.0719 133.164 79.4916 132.846 76.586 132.471C77.7897 133.402 78.9336 134.408 80.0112 135.483 80.9552 136.411 82.4735 136.399 83.4024 135.455 84.3205 134.522 84.3205 133.025 83.4024 132.091 82.3251 131.016 81.1811 130.011 79.9772 129.08 79.5916 128.732 79.1133 128.503 78.6003 128.42 78.0732 128.326 77.5296 128.426 77.0716 128.704 75.6567 129.744 74.3287 130.897 73.1008 132.152 72.172 133.096 72.1844 134.615 73.1285 135.543 74.0617 136.462 75.5588 136.462 76.4921 135.543Z" fill="#211715" transform="matrix(1 0 0 1.00049 374 144.189)"/><path d="M75.8836 127.41 75.8836 130.219C75.9187 131.528 76.972 132.582 78.2816 132.617 78.9176 132.615 79.5276 132.364 79.9802 131.917 80.4206 131.461 80.6707 130.853 80.6796 130.219L80.6796 127.41C80.646 126.1 79.5918 125.046 78.2816 125.012 77.6454 125.013 77.0351 125.264 76.583 125.712 76.1419 126.168 75.8917 126.775 75.8836 127.41Z" fill="#211715" transform="matrix(1 0 0 1.00049 374 144.189)"/><path d="M103.743 64.453C109.61 67.4338 114.694 71.7509 118.587 77.0566 122.887 82.992 125.962 89.7241 127.632 96.8603 128.325 99.8668 132.951 98.5939 132.257 95.5853 128.86 80.8645 119.681 67.3486 106.163 60.3144 103.429 58.8905 101.001 63.0281 103.743 64.456Z" fill="#211715" transform="matrix(1 0 0 1.00049 374 144.189)"/><path d="M75.2381 59.8507C75.4729 50.7962 75.8086 41.7057 74.8804 32.6731 74.0151 24.26 72.2485 15.1635 67.5634 7.95945 65.4461 4.70413 62.5405 1.58869 58.6857 0.499589 54.1879-0.783413 49.3528 0.624513 46.2469 4.12161 43.1255 7.50982 41.5708 12.0711 40.5996 16.4964 39.5482 21.4447 39.2398 26.5219 39.6843 31.561 40.2649 37.2387 41.3987 42.8461 43.0696 48.3032 44.5708 53.7337 46.5651 59.0157 49.0277 64.0833 49.7041 65.2219 51.1755 65.5965 52.3141 64.9201 53.4412 64.2505 53.8217 62.7998 53.1682 61.6633 51.224 57.6615 49.6112 53.5069 48.3462 49.2415 46.9644 44.8885 45.8572 40.4531 45.0309 35.9614 44.2547 31.4688 44.0746 26.8933 44.4954 22.3536 44.7921 18.1583 45.8929 14.0592 47.7377 10.2795 49.4503 7.06618 52.3569 4.30845 56.2537 4.857 59.3751 5.29664 61.6772 7.72764 63.3339 10.2416 67.4655 16.5074 69.1721 24.4699 69.9974 31.8238 71.0425 41.1292 70.6888 50.5084 70.447 59.8517 70.3671 62.9392 75.1631 62.9372 75.2431 59.8517Z" fill="#211715" transform="matrix(1 0 0 1.00049 374 144.189)"/><path d="M84.3306 59.8507C83.9439 51.5817 83.9919 43.2981 84.4745 35.0342 85.084 27.3495 86.4988 19.2322 90.1788 12.3668 91.6326 9.65506 93.63 6.72147 96.5286 5.41055 99.8858 3.8928 103.306 5.26267 105.535 7.96145 108.061 11.0209 109.114 15.3114 109.825 19.1243 110.581 23.5504 110.71 28.0611 110.207 32.5232 109.578 37.5938 108.489 42.5966 106.953 47.4699 105.598 52.3497 103.809 57.0981 101.606 61.6583 100.966 62.8074 101.344 64.257 102.465 64.9466 103.61 65.6026 105.07 65.2199 105.746 64.0863 107.948 59.5771 109.768 54.8908 111.186 50.0768 112.692 45.3324 113.843 40.4822 114.629 35.5667 115.407 30.4528 115.468 25.2551 114.808 20.1244 114.185 15.5932 113.029 10.7541 110.583 6.83538 108.164 2.95157 104.256-0.0569531 99.5181 0 95.3641 0.157383 91.5031 2.1815 89.0107 5.50847 83.7001 12.0491 81.464 20.8688 80.3329 29.0581 78.9221 39.2737 79.2668 49.5752 79.5335 59.8517 79.6135 62.9322 84.4105 62.9442 84.3296 59.8517Z" fill="#211715" transform="matrix(1 0 0 1.00049 374 144.189)"/><path d="M129.334 105.462C133.746 111.586 135.757 119.117 134.984 126.625 134.155 133.222 130.763 139.229 125.543 143.347 122.131 145.985 118.134 147.08 114.094 148.376 111.167 149.315 112.418 153.947 115.369 153 119.507 151.673 123.673 150.512 127.275 147.988 130.474 145.743 133.198 142.887 135.289 139.585 139.61 132.57 141.01 124.14 139.19 116.104 138.171 111.415 136.229 106.974 133.477 103.042 132.787 101.928 131.345 101.549 130.197 102.182 129.062 102.857 128.679 104.318 129.337 105.463Z" fill="#211715" transform="matrix(1 0 0 1.00049 374 144.189)"/><path d="M121.308 152.417C134.054 159.182 143.562 170.769 147.709 184.59 149.64 191.12 150.74 198.579 149.486 205.343 148.314 211.687 145.083 217.468 140.294 221.79 134.926 226.56 127.981 229.169 120.801 229.111 117.714 229.111 117.709 233.908 120.801 233.908 135.74 233.911 148.933 224.164 153.321 209.883 155.558 202.423 154.934 194.163 153.213 186.66 151.474 179.093 148.229 171.953 143.67 165.667 138.424 158.437 131.606 152.493 123.729 148.281 121.006 146.83 118.58 150.969 121.309 152.422Z" fill="#211715" transform="matrix(1 0 0 1.00049 374 144.189)"/><path d="M30.9126 148.278C16.9488 155.808 6.61501 168.655 2.25215 183.909 0.141883 191.375-0.799342 199.736 0.824322 207.388 2.36 214.441 6.12799 220.812 11.5695 225.554 17.7918 230.932 25.7482 233.879 33.972 233.852 37.0585 233.852 37.0635 229.056 33.972 229.056 20.9326 229.088 9.46047 220.45 5.88915 207.909 4.05366 201.27 4.72811 193.928 6.3218 187.305 7.99634 180.374 11.0179 173.84 15.2145 168.075 20.0011 161.56 26.1946 156.208 33.3346 152.417 36.0553 150.957 33.6343 146.815 30.9136 148.276Z" fill="#211715" transform="matrix(1 0 0 1.00049 374 144.189)"/><path d="M110.197 225.27C112.202 224.976 114.066 226.363 114.359 228.368 114.456 229.028 114.371 229.702 114.113 230.317 112.888 233.17 109.117 235.051 106.313 235.837 103.406 236.651 99.661 236.754 97.193 234.726 95.0788 232.986 94.81 229.964 97.186 228.387 100.56 226.147 105.524 225.896 109.385 226.617 110.657 226.933 111.954 226.196 112.335 224.942 112.674 223.667 111.929 222.354 110.66 221.992 105.509 221.031 99.3053 221.333 94.765 224.245 92.4947 225.591 90.9895 227.926 90.7014 230.549 90.5364 233.005 91.3561 235.425 92.9795 237.275 96.3207 241.24 102.305 241.755 107.033 240.605 111.761 239.455 117.339 236.17 118.854 231.256 120.187 226.806 117.66 222.119 113.211 220.786 111.818 220.369 110.34 220.32 108.922 220.644 107.652 221.006 106.907 222.319 107.247 223.595 107.623 224.853 108.924 225.592 110.197 225.27Z" fill="#211715" transform="matrix(1 0 0 1.00049 374 144.189)"/><path d="M45.3886 226.614C49.0814 225.884 52.9079 226.271 56.3796 227.726 57.6679 228.157 58.701 229.133 59.2043 230.395 59.4717 231.66 59.1488 232.977 58.327 233.974 56.4555 236.358 52.7006 236.68 49.9429 236.178 46.7595 235.597 43.2254 233.965 41.2501 231.302 40.2889 230.12 40.1105 228.484 40.7944 227.122 41.5332 225.764 43.0483 225.021 44.5743 225.267 45.8463 225.581 47.1416 224.845 47.5239 223.592 47.8645 222.316 47.1192 221.003 45.8493 220.641 40.5107 219.681 35.287 223.598 35.5837 229.254 35.8685 234.689 41.262 238.355 45.9112 240.045 50.5774 241.744 56.4106 241.691 60.4533 238.525 64.465 235.382 65.5411 229.082 61.5653 225.435 57.117 221.351 49.7361 220.939 44.1117 221.989 42.8426 222.351 42.0973 223.663 42.4361 224.939 42.8115 226.198 44.1132 226.937 45.3867 226.613Z" fill="#211715" transform="matrix(1 0 0 1.00049 374 144.189)"/><path d="M101.217 28.5645C101.022 27.3724 100.204 26.3759 99.0725 25.9536 97.9264 25.7144 96.7403 26.1098 95.967 26.9888 95.1553 27.813 94.5348 28.8056 94.1495 29.8964 91.4374 38.5162 89.9244 47.4682 89.6532 56.5005 89.5825 57.1269 89.8233 57.7481 90.2977 58.1631 91.6389 58.9564 93.1174 59.4899 94.6561 59.7358 95.1979 59.8649 95.7674 59.8053 96.2708 59.567 96.6405 59.3468 96.9 58.9806 96.9852 58.5588 98.437 52.8385 99.4562 47.9116 100.491 42.4471 101.216 38.665 101.555 34.819 101.501 30.9685 101.495 30.1592 101.399 29.353 101.217 28.5645Z" fill="#F8B8B4" transform="matrix(1 0 0 1.00049 374 144.189)"/><path d="M53.7997 29.5167C53.9944 28.3245 54.8131 27.328 55.945 26.9059 57.0913 26.666 58.278 27.0615 59.0514 27.941 59.8631 28.7658 60.4839 29.7587 60.8699 30.8496 63.5816 39.4692 65.0945 48.4208 65.3662 57.4527 65.4377 58.0792 65.1967 58.7007 64.7217 59.1153 63.3806 59.9086 61.902 60.4421 60.3633 60.6881 59.8227 60.8174 59.254 60.7582 58.7517 60.5202 58.3815 60.3 58.1219 59.9333 58.0372 59.511 56.5854 53.7907 55.5663 48.8648 54.5311 43.3993 53.8055 39.6177 53.4667 35.772 53.52 31.9217 53.5254 31.1123 53.6192 30.3058 53.7997 29.5167Z" fill="#F8B8B4" transform="matrix(1 0 0 1.00049 374 144.189)"/><path d="M51.8174 210.427C68.8313 208.942 85.9423 208.942 102.956 210.427 104.276 210.417 105.344 209.349 105.354 208.029 105.328 206.715 104.27 205.657 102.956 205.631 85.9423 204.146 68.8313 204.146 51.8174 205.631 50.5074 205.665 49.4534 206.719 49.4193 208.029 49.4286 209.349 50.4968 210.418 51.8174 210.427Z" fill="#211715" transform="matrix(1 0 0 1.00049 374 144.189)"/><path d="M77.4243 195.606C71.2682 195.484 66.1788 200.376 66.0568 206.532 66.0543 206.656 66.0539 206.78 66.0556 206.905 66.0556 213.721 70.8027 218.415 77.4253 218.415 84.3026 218.415 88.7939 213.677 88.7939 206.905 88.8841 200.754 83.9712 195.695 77.8206 195.605 77.6885 195.603 77.5564 195.603 77.4243 195.606Z" fill="#FFFFFF" transform="matrix(1 0 0 1.00049 374 144.189)"/><path d="M77.4243 193.208C71.431 193.186 66.1134 197.047 64.2801 202.753 62.5556 208.239 64.3067 214.224 68.7165 217.915 73.367 221.371 79.6085 221.789 84.6783 218.984 89.7052 216.11 91.8184 210.156 90.9891 204.609 89.8757 197.996 84.1301 193.167 77.4243 193.208 74.3368 193.168 74.3358 197.964 77.4243 198.004 81.3785 197.931 84.8967 200.502 86.0272 204.292 87.1215 207.869 86.0191 211.756 83.2095 214.226 81.7972 215.257 80.1215 215.868 78.3765 215.986 76.4779 216.164 74.5678 215.801 72.866 214.941 69.6738 213.053 67.9483 209.415 68.5056 205.749 69.0662 201.27 72.911 197.932 77.4243 198.007 80.5077 197.964 80.5167 193.168 77.4243 193.208Z" fill="#211715" transform="matrix(1 0 0 1.00049 374 144.189)"/><path d="M49.4193 202.111 49.4193 222.834C49.4193 225.919 54.2154 225.924 54.2154 222.834L54.2154 202.111C54.2154 199.024 49.4193 199.019 49.4193 202.111Z" fill="#211715" transform="matrix(1 0 0 1.00049 374 144.189)"/><path d="M101.334 202.111 101.334 222.834C101.334 225.919 106.13 225.924 106.13 222.834L106.13 202.111C106.13 199.024 101.334 199.019 101.334 202.111Z" fill="#211715" transform="matrix(1 0 0 1.00049 374 144.189)"/><path d="M267.429 261.884C261.296 261.778 255.082 261.641 249.208 261.467 229.75 260.889 222.604 247.11 233.578 231.031L264.874 222.838 264.874 208.029C282.148 206.539 299.519 206.561 316.789 208.095 316.789 213.007 316.789 217.92 316.789 222.833L347.309 231.026C358.283 247.105 351.137 260.884 331.679 261.462 318.003 261.868 302.487 262.061 290.445 262.177 283.575 262.119 275.573 262.027 267.429 261.884Z" fill="#FEBE69" transform="matrix(1 0 0 1.00049 374 144.189)"/><path d="M253.012 150.688C251.286 150.128 249.534 149.639 247.826 149.033 228.436 158.079 215.899 177.385 215.523 198.777 215.523 199.041 215.512 199.306 215.512 199.571 215.155 216.819 228.849 231.09 246.097 231.447 246.305 231.451 246.514 231.453 246.723 231.454L247.032 231.454 264.875 222.834 264.875 208.029C282.149 206.539 299.52 206.561 316.79 208.095 316.79 213.007 316.79 217.92 316.79 222.833L333.858 231.507 334.167 231.507C351.422 231.493 365.398 217.493 365.384 200.238 365.384 200.033 365.382 199.829 365.377 199.625 365.377 199.36 365.366 199.096 365.366 198.831 364.995 177.391 352.398 158.052 332.937 149.046 331.238 149.646 329.503 150.131 327.79 150.687 327.79 150.687 318.577 159.206 289.681 159.206 271.116 159.207 253.012 150.688 253.012 150.688Z" fill="#F8B8B4" transform="matrix(1 0 0 1.00049 374 144.189)"/><path d="M285.899 59.8507C286.292 44.5513 287.11 27.0068 280.456 12.6246 278.808 9.06154 275.488 3.93176 270.943 2.76173 268.224 1.94909 265.283 2.43176 262.967 4.07065 260.517 5.93636 258.674 8.48543 257.671 11.3966 255.953 15.9962 255.035 20.8563 254.958 25.7658 254.866 30.6077 255.385 35.4419 256.502 40.154 258.114 47.6442 260.525 54.9402 263.691 61.917 258.712 64.2318 254.252 67.5284 250.579 71.6091 243.222 79.3027 236.907 93.4071 236.91 103.468 231.434 110.644 229.175 119.768 230.672 128.67 232.271 137.106 237.955 144.811 245.825 148.245 246.548 148.562 247.286 148.845 248.031 149.101 249.675 149.673 251.355 150.145 253.012 150.683 253.012 150.683 271.116 159.202 289.682 159.202 318.578 159.202 327.791 150.683 327.791 150.683 330.199 149.902 332.659 149.258 334.979 148.245 342.848 144.811 348.534 137.106 350.131 128.67 351.628 119.768 349.37 110.644 343.893 103.468 343.893 93.4071 337.581 79.3067 330.224 71.6091 326.569 67.5477 322.135 64.2635 317.184 61.952 320.357 54.9643 322.773 47.6566 324.388 40.154 325.505 35.4418 326.024 30.6076 325.932 25.7658 325.855 20.8562 324.937 15.9962 323.218 11.3966 322.215 8.48515 320.372 5.93594 317.922 4.07065 315.606 2.43176 312.665 1.94909 309.946 2.76172 305.401 3.93576 302.081 9.06154 300.433 12.6246 293.779 27.0068 294.598 44.5513 294.99 59.8507Z" fill="#FFFFFF" transform="matrix(1 0 0 1.00049 374 144.189)"/><path d="M342.39 105.462C346.803 111.586 348.814 119.117 348.041 126.625 347.211 133.222 343.82 139.229 338.6 143.347 335.187 145.985 331.19 147.08 327.151 148.376 324.223 149.315 325.475 153.947 328.426 153 332.563 151.673 336.73 150.512 340.332 147.988 343.53 145.743 346.252 142.888 348.342 139.586 352.662 132.57 354.061 124.141 352.239 116.105 351.22 111.416 349.277 106.975 346.526 103.043 345.836 101.929 344.394 101.55 343.246 102.183 342.111 102.858 341.728 104.319 342.385 105.464Z" fill="#211715" transform="matrix(1 0 0 1.00049 374 144.189)"/><path d="M231.633 229.638C226.008 237.795 223.022 249.552 230.934 257.34 234.741 261.086 239.981 262.856 245.174 263.535 248.427 263.869 251.696 264.031 254.966 264.021 258.756 264.116 262.546 264.197 266.338 264.263 280.593 264.519 294.828 264.575 309.085 264.353 316.469 264.24 323.852 264.101 331.233 263.877 336.76 263.709 342.57 262.714 347.227 259.536 351.638 256.621 354.442 251.821 354.815 246.547 355.255 240.509 352.601 234.502 349.246 229.636 348.556 228.52 347.113 228.142 345.964 228.776 344.831 229.452 344.448 230.912 345.104 232.057 347.802 235.974 350.024 240.623 350.061 245.23 350.166 248.859 348.59 252.332 345.79 254.643 344.289 255.851 342.597 256.802 340.785 257.456 338.452 258.281 336.019 258.789 333.551 258.967 326.645 259.499 319.634 259.379 312.711 259.497 299.514 259.724 286.332 259.774 273.136 259.577 266.037 259.471 258.938 259.326 251.84 259.142 246.783 259.004 241.637 258.668 237.224 256.121 236.311 255.617 235.462 255.006 234.694 254.301 233.971 253.656 233.331 252.924 232.788 252.122 231.735 250.528 231.078 248.705 230.873 246.806 230.402 241.552 232.736 236.45 235.769 232.057 236.425 230.912 236.042 229.452 234.909 228.776 233.762 228.134 232.313 228.514 231.628 229.636Z" fill="#211715" transform="matrix(1 0 0 1.00049 374 144.189)"/><path d="M322.616 222.958C325.861 222.269 329.05 224.341 329.738 227.586 329.952 228.592 329.904 229.636 329.598 230.618 328.973 232.304 327.867 233.769 326.415 234.831 323.431 237.273 319.719 238.654 315.864 238.758 313.102 238.908 310.388 237.985 308.29 236.182 306.307 234.299 305.44 231.123 306.722 228.707 307.73 226.808 309.791 225.709 311.832 225.027 315.457 223.821 319.331 223.572 323.079 224.304" fill="#FFFFFF" transform="matrix(1 0 0 1.00049 374 144.189)"/><path d="M257.808 224.304C261.556 223.572 265.43 223.821 269.055 225.027 271.096 225.708 273.157 226.805 274.165 228.707 275.446 231.123 274.579 234.302 272.596 236.182 270.498 237.986 267.784 238.909 265.022 238.758 261.167 238.654 257.455 237.273 254.471 234.831 253.019 233.769 251.913 232.304 251.288 230.618 250.303 227.45 252.072 224.083 255.24 223.098 256.221 222.793 257.265 222.744 258.271 222.958" fill="#FFFFFF" transform="matrix(1 0 0 1.00049 374 144.189)"/><path d="M261.585 60.3114C248.068 67.3486 238.884 80.8655 235.491 95.5823 234.799 98.5859 239.422 99.8678 240.115 96.8573 241.786 89.7209 244.861 82.9887 249.161 77.0536 253.054 71.7475 258.138 67.4302 264.006 64.45 266.744 63.0241 264.321 58.8835 261.585 60.3084Z" fill="#211715" transform="matrix(1 0 0 1.00049 374 144.189)"/><path d="M234.269 103.041C229.271 110.102 227.058 118.762 228.056 127.355 229.05 135.079 233.012 142.112 239.103 146.964 243.088 150.074 247.629 151.476 252.379 153 255.325 153.945 256.587 149.316 253.654 148.376 249.945 147.186 246.288 146.188 243.044 143.951 240.417 142.103 238.193 139.742 236.505 137.01 232.825 131.02 231.664 123.816 233.275 116.973 234.225 112.838 235.971 108.929 238.416 105.462 239.072 104.317 238.689 102.857 237.556 102.181 236.408 101.54 234.96 101.92 234.274 103.041Z" fill="#211715" transform="matrix(1 0 0 1.00049 374 144.189)"/><path d="M293.192 126.69C291.223 127.298 286.697 126.916 286.323 123.202 286.366 118.291 291.839 118.016 294.407 119.663 296.509 121.01 297.374 124.988 293.192 126.69Z" fill="#211715" transform="matrix(1 0 0 1.00049 374 144.189)"/><path d="M290.826 119.646C290.75 119.689 290.672 119.727 290.592 119.761L291.165 119.52C291.042 119.571 290.912 119.607 290.78 119.626L291.417 119.54C291.29 119.554 291.161 119.553 291.034 119.535L291.671 119.621C291.597 119.61 291.523 119.596 291.449 119.582 291.176 119.528 290.899 119.498 290.623 119.463 290.302 119.449 289.983 119.52 289.699 119.67 288.824 120.052 288.25 120.906 288.225 121.861L288.31 122.498C288.42 122.899 288.633 123.263 288.927 123.556L289.412 123.932C289.779 124.147 290.197 124.26 290.623 124.259L290.635 124.259 289.997 124.173C290.097 124.186 290.185 124.207 290.279 124.224 290.536 124.272 290.797 124.301 291.056 124.332 291.112 124.339 291.168 124.343 291.224 124.345 291.283 124.345 291.341 124.342 291.399 124.336 291.639 124.311 291.883 124.281 292.121 124.236 292.154 124.23 292.187 124.223 292.221 124.215 292.296 124.195 292.37 124.17 292.442 124.141 292.718 124.039 292.987 123.92 293.248 123.783 294.093 123.307 294.551 122.352 294.393 121.394 294.379 121.077 294.281 120.768 294.108 120.502L293.733 120.017C293.44 119.723 293.076 119.511 292.675 119.401L292.038 119.315C291.612 119.314 291.195 119.427 290.828 119.642Z" fill="#211715" transform="matrix(1 0 0 1.00049 374 144.189)"/><path d="M266.044 107.131C265.245 109.729 265.744 115.687 270.64 116.18 277.111 116.124 277.473 108.915 275.303 105.531 273.526 102.76 268.285 101.616 266.044 107.131Z" fill="#211715" transform="matrix(1 0 0 1.00049 374 144.189)"/><path d="M314.841 107.131C315.64 109.729 315.141 115.687 310.245 116.181 303.775 116.124 303.412 108.914 305.582 105.531 307.36 102.76 312.601 101.616 314.841 107.131Z" fill="#211715" transform="matrix(1 0 0 1.00049 374 144.189)"/><path d="M289.549 135.543C290.502 134.552 291.526 133.631 292.614 132.79L292.129 133.164 292.548 132.846 289.643 132.471C290.846 133.402 291.99 134.408 293.068 135.483 294.033 136.389 295.551 136.342 296.458 135.377 297.325 134.453 297.324 133.014 296.456 132.091 295.379 131.016 294.235 130.011 293.031 129.08 292.645 128.732 292.167 128.503 291.654 128.42 291.127 128.326 290.583 128.426 290.125 128.704 288.71 129.744 287.382 130.897 286.155 132.152 285.226 133.096 285.238 134.615 286.182 135.543 287.115 136.462 288.613 136.462 289.546 135.543Z" fill="#211715" transform="matrix(1 0 0 1.00049 374 144.189)"/><path d="M288.94 127.41 288.94 130.219C288.975 131.528 290.029 132.582 291.338 132.617 291.974 132.615 292.584 132.364 293.037 131.917 293.477 131.461 293.727 130.853 293.736 130.219L293.736 127.41C293.703 126.1 292.648 125.046 291.338 125.012 290.702 125.013 290.092 125.264 289.64 125.712 289.199 126.168 288.948 126.775 288.94 127.41Z" fill="#211715" transform="matrix(1 0 0 1.00049 374 144.189)"/><path d="M316.799 64.453C322.666 67.4338 327.751 71.7509 331.644 77.0566 335.944 82.992 339.018 89.7241 340.689 96.8603 341.382 99.8668 346.007 98.5939 345.314 95.5853 341.917 80.8645 332.737 67.3486 319.219 60.3144 316.486 58.8905 314.058 63.0281 316.799 64.456Z" fill="#211715" transform="matrix(1 0 0 1.00049 374 144.189)"/><path d="M288.297 59.8507C288.532 50.7962 288.867 41.7057 287.939 32.6731 287.074 24.26 285.307 15.1635 280.622 7.95945 278.502 4.70413 275.597 1.58869 271.742 0.499589 267.244-0.782456 262.409 0.627065 259.304 4.12561 256.182 7.51382 254.627 12.0751 253.656 16.5004 252.605 21.4487 252.296 26.5259 252.741 31.565 253.322 37.2427 254.455 42.8501 256.126 48.3072 257.628 53.7364 259.622 59.017 262.084 64.0833 262.744 65.2314 264.21 65.6271 265.358 64.967 266.507 64.307 266.902 62.8411 266.242 61.6929 266.237 61.683 266.231 61.6731 266.225 61.6633 264.281 57.6615 262.668 53.507 261.403 49.2415 260.021 44.8885 258.914 40.4531 258.088 35.9614 257.311 31.4688 257.131 26.8934 257.552 22.3536 257.849 18.1583 258.95 14.0592 260.794 10.2796 262.507 7.06618 265.412 4.30845 269.307 4.857 272.429 5.29664 274.731 7.72764 276.388 10.2416 280.519 16.5074 282.226 24.4699 283.051 31.8238 284.096 41.1292 283.743 50.5084 283.501 59.8517 283.421 62.9392 288.217 62.9372 288.297 59.8517Z" fill="#211715" transform="matrix(1 0 0 1.00049 374 144.189)"/><path d="M297.385 59.8507C296.999 51.5817 297.047 43.2981 297.529 35.0342 298.139 27.3495 299.553 19.2322 303.233 12.3668 304.687 9.65506 306.685 6.72147 309.583 5.41055 312.94 3.8928 316.361 5.26267 318.59 7.96145 321.116 11.0209 322.169 15.3114 322.879 19.1243 323.636 23.5504 323.765 28.0611 323.262 32.5232 322.632 37.5938 321.543 42.5966 320.008 47.4699 318.653 52.3497 316.864 57.0981 314.661 61.6583 314.021 62.8079 314.4 64.2576 315.521 64.9466 316.667 65.6026 318.127 65.2199 318.803 64.0863 321.005 59.5771 322.825 54.8908 324.242 50.0768 325.749 45.3324 326.9 40.4822 327.685 35.5667 328.464 30.4528 328.524 25.2551 327.864 20.1244 327.242 15.5932 326.086 10.7541 323.64 6.83538 321.221 2.95157 317.313-0.0569531 312.578 0 308.423 0.156252 304.561 2.18008 302.067 5.50747 296.757 12.0481 294.521 20.8678 293.39 29.0571 291.979 39.2727 292.323 49.5742 292.59 59.8507 292.67 62.9312 297.467 62.9432 297.386 59.8507Z" fill="#211715" transform="matrix(1 0 0 1.00049 374 144.189)"/><path d="M334.365 152.417C347.111 159.182 356.619 170.768 360.766 184.59 362.697 191.12 363.797 198.579 362.543 205.343 361.371 211.687 358.14 217.468 353.35 221.79 347.982 226.562 341.034 229.172 333.852 229.114 330.766 229.114 330.761 233.911 333.852 233.911 348.792 233.914 361.985 224.167 366.373 209.886 368.61 202.426 367.986 194.166 366.265 186.663 364.526 179.096 361.28 171.956 356.721 165.67 351.476 158.44 344.658 152.496 336.781 148.284 334.058 146.833 331.632 150.972 334.361 152.425Z" fill="#211715" transform="matrix(1 0 0 1.00049 374 144.189)"/><path d="M243.969 148.278C230.005 155.808 219.672 168.655 215.309 183.909 213.199 191.377 212.252 199.739 213.881 207.389 215.417 214.442 219.185 220.813 224.626 225.555 230.85 230.932 238.807 233.877 247.031 233.849 250.117 233.849 250.122 229.053 247.031 229.053 233.991 229.086 222.517 220.448 218.946 207.906 217.11 201.267 217.785 193.925 219.378 187.302 221.053 180.371 224.075 173.837 228.271 168.072 233.058 161.557 239.251 156.205 246.391 152.414 249.112 150.954 246.691 146.812 243.97 148.273Z" fill="#211715" transform="matrix(1 0 0 1.00049 374 144.189)"/><path d="M323.254 225.27C325.259 224.976 327.122 226.363 327.416 228.368 327.513 229.028 327.428 229.702 327.17 230.317 325.945 233.17 322.174 235.051 319.369 235.837 316.463 236.651 312.718 236.754 310.25 234.726 308.135 232.986 307.867 229.964 310.243 228.387 313.617 226.147 318.581 225.896 322.442 226.617 323.714 226.933 325.011 226.196 325.391 224.942 325.731 223.666 324.986 222.354 323.717 221.992 318.566 221.031 312.362 221.333 307.822 224.245 305.551 225.591 304.046 227.926 303.758 230.549 303.593 233.005 304.413 235.425 306.036 237.275 309.377 241.24 315.361 241.755 320.09 240.605 324.818 239.455 330.396 236.17 331.911 231.256 333.243 226.806 330.717 222.119 326.267 220.786 324.874 220.369 323.397 220.32 321.979 220.644 320.709 221.006 319.963 222.319 320.303 223.595 320.68 224.853 321.981 225.592 323.254 225.27Z" fill="#211715" transform="matrix(1 0 0 1.00049 374 144.189)"/><path d="M258.445 226.614C262.138 225.884 265.965 226.271 269.436 227.726 270.725 228.157 271.758 229.133 272.261 230.395 272.528 231.66 272.205 232.977 271.384 233.974 269.512 236.358 265.757 236.68 263 236.178 259.816 235.597 256.282 233.965 254.307 231.302 253.346 230.12 253.167 228.484 253.851 227.122 254.59 225.764 256.105 225.021 257.631 225.267 258.903 225.581 260.198 224.845 260.581 223.592 260.921 222.316 260.176 221.003 258.906 220.641 253.567 219.681 248.344 223.598 248.64 229.254 248.925 234.689 254.319 238.355 258.968 240.045 263.634 241.744 269.467 241.691 273.51 238.525 277.522 235.382 278.598 229.082 274.622 225.435 270.174 221.351 262.793 220.939 257.168 221.989 255.899 222.351 255.154 223.663 255.493 224.939 255.868 226.198 257.17 226.937 258.443 226.613Z" fill="#211715" transform="matrix(1 0 0 1.00049 374 144.189)"/><path d="M314.274 28.5645C314.081 27.3722 313.262 26.3756 312.13 25.9536 310.984 25.7144 309.798 26.1098 309.025 26.9888 308.213 27.813 307.592 28.8056 307.207 29.8964 304.496 38.5163 302.983 47.4682 302.711 56.5005 302.64 57.1269 302.881 57.7481 303.355 58.1631 304.697 58.9564 306.175 59.4899 307.714 59.7358 308.256 59.8649 308.825 59.8053 309.328 59.567 309.698 59.3468 309.958 58.9806 310.043 58.5588 311.495 52.8385 312.514 47.9116 313.549 42.4471 314.274 38.665 314.612 34.819 314.559 30.9685 314.553 30.1592 314.457 29.353 314.274 28.5645Z" fill="#F8B8B4" transform="matrix(1 0 0 1.00049 374 144.189)"/><path d="M266.856 29.5167C267.051 28.3245 267.87 27.328 269.002 26.9059 270.147 26.6668 271.333 27.0622 272.106 27.941 272.918 28.7658 273.539 29.7587 273.925 30.8496 276.636 39.4692 278.149 48.4208 278.421 57.4527 278.491 58.08 278.248 58.7017 277.771 59.1153 276.43 59.9086 274.952 60.4421 273.413 60.6881 272.872 60.8179 272.302 60.7587 271.799 60.5202 271.429 60.3 271.17 59.9333 271.085 59.511 269.633 53.7907 268.614 48.8648 267.579 43.3993 266.853 39.6177 266.514 35.772 266.568 31.9217 266.576 31.1119 266.673 30.3055 266.856 29.5167Z" fill="#F8B8B4" transform="matrix(1 0 0 1.00049 374 144.189)"/><path d="M264.874 210.427C281.888 208.942 298.999 208.942 316.013 210.427 317.333 210.417 318.401 209.349 318.411 208.029 318.385 206.715 317.326 205.657 316.013 205.631 298.999 204.146 281.888 204.146 264.874 205.631 263.564 205.665 262.51 206.719 262.476 208.029 262.485 209.349 263.553 210.418 264.874 210.427Z" fill="#211715" transform="matrix(1 0 0 1.00049 374 144.189)"/><path d="M262.476 202.111 262.476 222.834C262.476 225.919 267.272 225.924 267.272 222.834L267.272 202.111C267.272 199.024 262.476 199.019 262.476 202.111Z" fill="#211715" transform="matrix(1 0 0 1.00049 374 144.189)"/><path d="M314.39 202.111 314.39 222.834C314.39 225.919 319.186 225.924 319.186 222.834L319.186 202.111C319.186 199.024 314.39 199.019 314.39 202.111Z" fill="#211715" transform="matrix(1 0 0 1.00049 374 144.189)"/><path d="M285.32 167.094C281.55 171.169 279.008 176.226 277.987 181.682 277.668 182.955 278.406 184.254 279.662 184.633 280.937 184.968 282.247 184.224 282.611 182.957 282.8 181.802 283.072 180.662 283.425 179.545 283.604 178.979 283.808 178.422 284.024 177.869 284.088 177.705 284.137 177.588 284.04 177.819 284.098 177.681 284.159 177.543 284.221 177.406 284.36 177.096 284.506 176.789 284.657 176.485 285.205 175.382 285.826 174.317 286.516 173.297 286.692 173.036 286.872 172.779 287.056 172.525 287.149 172.397 287.242 172.27 287.337 172.143 287.361 172.11 287.626 171.765 287.51 171.913 287.395 172.06 287.668 171.718 287.694 171.687 287.795 171.562 287.896 171.438 287.999 171.315 288.233 171.036 288.471 170.762 288.712 170.491 289.641 169.547 289.629 168.028 288.685 167.099 287.752 166.181 286.254 166.181 285.321 167.099Z" fill="#211715" transform="matrix(1 0 0 1.00049 374 144.189)"/><path d="M306.354 174.192C308.046 173.136 309.007 171.223 308.843 169.235 308.638 167.317 307.703 165.552 306.232 164.306 303.858 162.198 300.926 160.821 297.788 160.339 294.702 159.805 290.808 159.715 288.985 162.821 286.759 166.613 291.224 170.009 293.981 171.785 295.697 172.868 297.529 173.754 299.444 174.426 301.671 175.352 304.19 175.266 306.349 174.192 307.493 173.523 307.878 172.054 307.209 170.91 306.541 169.767 305.072 169.382 303.928 170.05 303.545 170.25 303.778 170.143 303.874 170.102 303.721 170.162 303.565 170.214 303.406 170.257 303.406 170.257 303.03 170.323 303.23 170.3 303.488 170.27 302.908 170.3 302.86 170.3 302.296 170.301 301.738 170.191 301.217 169.977 300.043 169.596 298.91 169.099 297.835 168.493 297.273 168.188 296.723 167.859 296.188 167.506 295.942 167.344 295.7 167.178 295.461 167.007 295.361 166.934 295.261 166.86 295.161 166.785 295.409 166.971 295.001 166.659 294.961 166.625 294.488 166.239 294.033 165.831 293.598 165.401 293.486 165.29 293.362 165.177 293.262 165.057 293.317 165.123 293.524 165.257 293.344 165.124 293.129 164.967 293.411 165.359 293.333 165.097 293.318 165.048 293.195 164.598 293.196 164.598 293.247 164.598 293.196 164.997 293.196 165.02 293.223 165.352 293.324 164.862 293.172 165.12 293.172 165.13 293.009 165.459 292.972 165.426 292.955 165.41 293.214 165.184 293.242 165.146 293.042 165.413 293.062 165.255 293.228 165.157 293.34 165.091 293.456 165.025 293.564 164.957 293.611 164.928 293.905 164.801 293.617 164.92 293.298 165.052 293.749 164.896 293.817 164.871 293.949 164.82 294.217 164.852 293.682 164.878 293.774 164.878 293.866 164.858 293.958 164.854 294.183 164.844 294.406 164.828 294.631 164.827 295.184 164.831 295.736 164.864 296.286 164.927 295.769 164.874 296.628 164.988 296.735 165.008 296.993 165.056 297.249 165.11 297.504 165.169 298.094 165.302 298.675 165.467 299.248 165.663 299.497 165.747 299.74 165.841 299.986 165.929 300.061 165.955 300.414 166.106 300.026 165.938 300.126 165.981 300.226 166.026 300.326 166.072 300.83 166.302 301.318 166.564 301.788 166.859 301.919 166.943 302.571 167.473 302.152 167.092 302.38 167.299 302.621 167.491 302.847 167.703 303.073 167.915 303.294 168.15 303.516 168.376 303.828 168.695 303.643 168.514 303.571 168.418 303.68 168.567 303.781 168.722 303.871 168.882 303.904 168.94 304.087 169.351 303.986 169.087 303.885 168.823 304.071 169.439 304.068 169.427 304.058 169.393 304.042 169.073 304.06 169.343 304.07 169.516 304.07 169.69 304.06 169.863 304.087 169.315 303.838 170.319 304.071 169.863 304.086 169.832 303.871 170.227 303.859 170.219 303.767 170.158 304.499 169.719 303.939 170.06 302.795 170.729 302.41 172.198 303.079 173.341 303.747 174.485 305.216 174.87 306.36 174.202Z" fill="#211715" transform="matrix(1 0 0 1.00049 374 144.189)"/><path d="M276.786 170.05C276.376 169.797 276.677 170.001 276.759 170.041L276.812 170.125C276.903 170.267 276.883 170.237 276.753 170.035 276.721 170.035 276.594 169.674 276.697 169.947 276.8 170.22 276.681 169.801 276.657 169.738 276.564 169.497 276.665 169.795 276.665 169.858 276.665 169.721 276.665 169.578 276.658 169.441 276.651 169.303 276.758 169.064 276.658 169.422 276.697 169.28 276.734 169.138 276.778 168.997 276.655 169.39 276.936 168.748 277.028 168.597 277.068 168.529 277.304 168.26 277.059 168.545 277.134 168.457 277.211 168.371 277.289 168.287 277.478 168.087 277.675 167.887 277.879 167.699 277.999 167.586 278.122 167.476 278.246 167.368 278.29 167.329 278.746 166.947 278.477 167.161 278.26 167.332 278.75 166.976 278.855 166.908 279.08 166.762 279.313 166.625 279.549 166.495 279.764 166.377 279.984 166.265 280.205 166.159L280.498 166.023C281.123 165.731 280.256 166.111 280.633 165.966 281.719 165.543 282.843 165.22 283.988 165.004 284.106 164.982 284.772 164.879 284.54 164.909 284.262 164.944 284.618 164.902 284.651 164.899 284.792 164.886 284.933 164.871 285.073 164.861 285.605 164.818 286.139 164.812 286.672 164.844 286.795 164.852 286.919 164.869 287.042 164.875 287.003 164.875 286.636 164.757 286.832 164.852 287.057 164.959 287.342 165.085 286.988 164.868 287.219 164.989 287.443 165.122 287.658 165.268 287.507 165.15 287.464 165.018 287.621 165.28 287.757 165.508 287.69 165.409 287.594 165.241 287.374 164.853 287.528 164.992 287.554 165.163 287.544 165.098 287.425 164.598 287.526 164.597 287.488 164.597 287.359 165.413 287.392 165.112 287.417 164.896 287.348 165.156 287.328 165.212 287.427 164.92 287.461 165.068 287.294 165.224 287.027 165.471 286.776 165.735 286.506 165.978 286.293 166.17 286.076 166.357 285.856 166.54 285.729 166.64 285.601 166.751 285.47 166.851 285.515 166.817 285.678 166.693 285.458 166.851 284.914 167.25 284.352 167.625 283.772 167.975 282.614 168.681 281.392 169.275 280.121 169.75 279.751 169.886 279.375 170.024 278.994 170.13 278.865 170.167 278.734 170.196 278.602 170.23 278.439 170.256 278.425 170.266 278.561 170.257L278.281 170.282C278.092 170.295 277.903 170.294 277.713 170.296 277.633 170.296 277.272 170.265 277.545 170.31 277.385 170.277 277.228 170.234 277.074 170.183 276.622 170.051 277.196 170.261 276.788 170.047 275.64 169.409 274.194 169.789 273.507 170.907 272.854 172.053 273.236 173.511 274.367 174.189 278.099 176.144 282.261 174.36 285.64 172.443 287.203 171.558 288.662 170.499 289.988 169.288 291.437 167.96 292.605 166.113 292.207 164.058 291.712 162.288 290.344 160.896 288.582 160.371 287.237 159.981 285.821 159.896 284.438 160.123 281.138 160.403 277.982 161.599 275.326 163.578 273.753 164.694 272.593 166.299 272.029 168.144 271.414 170.451 272.357 172.892 274.362 174.189 275.506 174.857 276.975 174.472 277.643 173.328 278.312 172.185 277.927 170.716 276.783 170.047Z" fill="#211715" transform="matrix(1 0 0 1.00049 374 144.189)"/><path d="M316.491 151.863C312.537 153.661 308.464 155.184 304.301 156.422 302.09 157.096 299.862 157.704 297.614 158.247 296.669 158.475 295.721 158.689 294.769 158.891 294.661 158.914 293.188 159.229 293.802 159.129 293.635 159.156 293.462 159.162 293.294 159.179 292.294 159.279 291.26 159.465 290.254 159.479 289.405 159.445 288.559 159.363 287.719 159.232 287.491 159.208 287.263 159.19 287.036 159.161 286.836 159.136 286.61 159.074 286.946 159.138 285.859 158.933 284.775 158.71 283.696 158.47 281.505 157.984 279.329 157.439 277.167 156.836 272.31 155.524 267.555 153.862 262.938 151.863 261.788 151.237 260.351 151.614 259.656 152.723 258.999 153.868 259.382 155.33 260.517 156.005 264.894 157.929 269.391 159.568 273.98 160.912 278.174 162.287 282.479 163.299 286.847 163.937 287.912 164.059 289.016 164.251 290.087 164.274 290.924 164.246 291.758 164.17 292.585 164.045 296.423 163.557 300.209 162.72 303.896 161.547 309.034 160.084 314.054 158.231 318.911 156.006 320.046 155.331 320.429 153.869 319.771 152.724 319.084 151.606 317.638 151.227 316.491 151.864Z" fill="#211715" transform="matrix(1 0 0 1.00049 374 144.189)"/><path d="M291.797 170.275C292.01 170.524 292.22 170.775 292.427 171.029 292.529 171.156 292.631 171.284 292.732 171.412 292.606 171.248 292.628 171.279 292.8 171.506 293.18 172.024 293.552 172.546 293.899 173.085 294.587 174.138 295.205 175.235 295.748 176.37 295.882 176.649 296.009 176.93 296.134 177.214 295.955 176.808 296.301 177.63 296.334 177.707 296.554 178.275 296.754 178.851 296.934 179.434 297.286 180.587 297.557 181.762 297.744 182.952 298.1 184.227 299.418 184.975 300.695 184.628 301.946 184.244 302.681 182.949 302.369 181.677 301.384 176.179 298.899 171.059 295.188 166.884 294.249 165.953 292.736 165.953 291.797 166.884 290.893 167.833 290.893 169.325 291.797 170.275Z" fill="#211715" transform="matrix(1 0 0 1.00049 374 144.189)"/></g></svg>