<svg width="157" height="265" xmlns="http://www.w3.org/2000/svg" xmlns:xlink="http://www.w3.org/1999/xlink" xml:space="preserve" overflow="hidden"><defs><clipPath id="clip0"><rect x="473" y="162" width="157" height="265"/></clipPath></defs><g clip-path="url(#clip0)" transform="translate(-473 -162)"><path d="M72.8758 59.8801C73.2697 44.5732 74.0874 27.02 67.4306 12.6308 65.7812 9.066 62.4603 3.9337 57.9128 2.76308 55.1928 1.95005 52.25 2.43296 49.9324 4.07265 47.4816 5.93928 45.638 8.4896 44.6342 11.4022 42.915 16.0041 41.997 20.8665 41.9201 25.7785 41.8278 30.6227 42.3467 35.4593 43.4646 40.1737 45.0795 47.6678 47.4925 54.9673 50.6622 61.9475 45.6809 64.2633 41.2188 67.5615 37.5435 71.6442 30.183 79.3417 23.8651 93.453 23.8681 103.519 18.3889 110.698 16.1294 119.827 17.6272 128.733 19.2266 137.174 24.9137 144.882 32.7871 148.318 33.5109 148.635 34.2486 148.918 34.9944 149.175 36.6389 149.746 38.3203 150.219 39.9777 150.757 39.9777 150.757 58.0907 159.28 76.6656 159.28 105.576 159.28 114.794 150.757 114.794 150.757 117.203 149.975 119.664 149.331 121.986 148.318 129.858 144.882 135.547 137.174 137.145 128.733 138.642 119.827 136.383 110.698 130.904 103.519 130.904 93.453 124.589 79.3457 117.228 71.6442 113.572 67.5809 109.135 64.295 104.181 61.9824 107.356 54.9913 109.773 47.68 111.389 40.1737 112.506 35.4592 113.025 30.6227 112.934 25.7785 112.856 20.8665 111.938 16.004 110.218 11.4022 109.215 8.48931 107.372 5.93885 104.92 4.07265 102.603 2.43296 99.6599 1.95005 96.9398 2.76308 92.3864 3.93869 89.0705 9.06699 87.416 12.6318 80.7592 27.021 81.578 44.5742 81.9728 59.8801Z" fill="#FFFFFF" transform="matrix(1.00233 0 0 1 261.144 162.189)"/><path d="M54.399 262.013C48.263 261.906 42.0461 261.769 36.169 261.595 16.7015 261.017 9.55183 247.231 20.5312 231.144L51.8428 222.947 51.8428 208.131C69.1253 206.641 86.5049 206.663 103.784 208.197 103.784 213.112 103.784 218.027 103.784 222.942L134.318 231.139C145.298 247.226 138.148 261.012 118.681 261.59 104.998 261.996 89.4743 262.19 77.4263 262.306 70.5526 262.248 62.5473 262.156 54.399 262.013Z" fill="#FEBE69" transform="matrix(1.00233 0 0 1 261.144 162.189)"/><path d="M39.9747 150.762C38.2483 150.202 36.4949 149.712 34.7865 149.107 15.387 158.156 2.84286 177.472 2.46618 198.875 2.46618 199.139 2.45519 199.404 2.45519 199.669 2.09853 216.925 15.7987 231.204 33.0554 231.561 33.2642 231.565 33.473 231.567 33.6818 231.567L33.9887 231.567 51.8408 222.943 51.8408 208.131C69.1233 206.641 86.5029 206.663 103.782 208.197 103.782 213.112 103.782 218.027 103.782 222.942L120.86 231.623 121.168 231.623C138.431 231.609 152.415 217.603 152.401 200.339 152.401 200.134 152.399 199.93 152.394 199.725 152.394 199.46 152.383 199.196 152.383 198.931 152.012 177.481 139.408 158.131 119.938 149.122 118.239 149.721 116.502 150.207 114.789 150.763 114.789 150.763 105.571 159.286 76.6606 159.286 58.0877 159.285 39.9747 150.762 39.9747 150.762Z" fill="#85807F" transform="matrix(1.00233 0 0 1 261.144 162.189)"/><path d="M18.5858 229.751C12.9577 237.912 9.97069 249.674 17.8861 257.467 21.6948 261.214 26.9371 262.985 32.1333 263.665 35.3881 263.998 38.6583 264.161 41.9301 264.15 45.7215 264.246 49.5139 264.326 53.3073 264.392 67.5696 264.649 81.8119 264.705 96.0751 264.483 103.463 264.369 110.85 264.23 118.235 264.006 123.764 263.839 129.577 262.843 134.237 259.664 138.649 256.747 141.455 251.945 141.828 246.668 142.268 240.627 139.613 234.617 136.256 229.749 135.566 228.633 134.122 228.254 132.973 228.888 131.839 229.565 131.456 231.025 132.112 232.171 134.811 236.09 137.035 240.741 137.072 245.351 137.176 248.981 135.6 252.456 132.799 254.769 131.297 255.977 129.604 256.928 127.791 257.583 125.457 258.408 123.022 258.916 120.553 259.094 113.644 259.627 106.63 259.506 99.7029 259.625 86.4993 259.852 73.3117 259.902 60.1091 259.705 53.0061 259.599 45.9038 259.454 38.8021 259.269 33.7428 259.131 28.5945 258.795 24.179 256.247 23.2656 255.743 22.4159 255.132 21.6478 254.426 20.9244 253.781 20.284 253.048 19.7415 252.245 18.6874 250.651 18.0303 248.827 17.8251 246.927 17.3542 241.671 19.6895 236.567 22.7235 232.171 23.3799 231.025 22.997 229.565 21.8628 228.888 20.7152 228.246 19.2658 228.627 18.5808 229.749Z" fill="#211715" transform="matrix(1.00233 0 0 1 261.144 162.189)"/><path d="M109.614 223.067C112.86 222.378 116.05 224.451 116.739 227.698 116.953 228.704 116.904 229.749 116.598 230.732 115.974 232.418 114.866 233.884 113.414 234.946 110.428 237.389 106.715 238.771 102.858 238.875 100.094 239.026 97.379 238.102 95.2804 236.298 93.2961 234.414 92.4284 231.236 93.7109 228.819 94.7196 226.92 96.7819 225.82 98.8242 225.137 102.45 223.931 106.326 223.682 110.077 224.415" fill="#FFFFFF" transform="matrix(1.00233 0 0 1 261.144 162.189)"/><path d="M44.7732 224.415C48.5236 223.682 52.3995 223.931 56.0254 225.137 58.0678 225.819 60.1301 226.917 61.1387 228.819 62.4203 231.236 61.5526 234.417 59.5683 236.298 57.4697 238.102 54.7545 239.026 51.9908 238.875 48.1338 238.771 44.4206 237.389 41.4343 234.946 39.9824 233.884 38.8751 232.418 38.2503 230.732 37.2644 227.562 39.0344 224.194 42.2038 223.208 43.1859 222.902 44.2299 222.854 45.236 223.067" fill="#FFFFFF" transform="matrix(1.00233 0 0 1 261.144 162.189)"/><path d="M46.3066 150.992C46.2849 153.496 47.3006 155.898 49.1127 157.627 50.8216 159.194 52.7873 160.456 54.9238 161.357 55.4877 161.666 56.1475 161.753 56.7722 161.598 58.0496 161.246 58.7997 159.925 58.4477 158.648 58.2813 158.044 57.8856 157.53 57.345 157.214 56.5453 156.825 55.7345 156.435 54.9538 155.998 54.5539 155.774 54.161 155.539 53.7812 155.286 53.6012 155.166 53.4273 155.037 53.2503 154.913 53.0094 154.745 53.6612 155.254 53.3363 154.981 53.2444 154.904 53.1504 154.828 53.0594 154.75 52.7501 154.484 52.4589 154.198 52.1877 153.894 52.1147 153.811 52.0447 153.725 51.9718 153.641 51.7558 153.391 52.0497 153.776 52.1017 153.812 51.9487 153.65 51.8228 153.464 51.7289 153.261 51.6249 153.092 51.5279 152.919 51.438 152.742 51.3784 152.649 51.3304 152.548 51.295 152.442 51.309 152.507 51.4949 152.962 51.386 152.652 51.2374 152.244 51.1279 151.823 51.0591 151.394L51.145 152.032C51.1003 151.686 51.0869 151.337 51.1051 150.989 51.0963 149.668 50.0273 148.598 48.7058 148.59 47.3928 148.618 46.3352 149.676 46.3066 150.989Z" fill="#211715" transform="matrix(1.00233 0 0 1 261.144 162.189)"/><path d="M59.0904 152.795C60.6707 157.601 65.0013 160.973 70.0478 161.328 71.3701 161.321 72.4404 160.251 72.447 158.928 72.4169 157.616 71.3601 156.559 70.0478 156.529 69.8418 156.514 69.6369 156.494 69.431 156.468L70.0688 156.554C69.6193 156.492 69.1747 156.399 68.7382 156.275 68.5383 156.219 68.3423 156.155 68.1504 156.085 68.0504 156.05 67.9575 156.012 67.8615 155.976 67.5876 155.876 68.4003 156.218 68.0344 156.05 67.6218 155.862 67.2211 155.649 66.8348 155.411 66.6599 155.303 66.487 155.189 66.319 155.069 66.1741 154.969 65.8672 154.669 66.406 155.148 66.329 155.08 66.244 155.019 66.1651 154.948 65.8317 154.669 65.5162 154.371 65.2204 154.053 65.0794 153.902 64.9485 153.743 64.8125 153.587 64.5056 153.234 65.1534 154.063 64.8835 153.682 64.8245 153.598 64.7625 153.515 64.7036 153.43 64.4572 153.074 64.2351 152.702 64.0388 152.317 63.9928 152.225 63.9478 152.132 63.9038 152.039 63.7039 151.605 63.9938 152.197 63.9728 152.215 63.9878 152.202 63.7369 151.567 63.7199 151.515 63.3676 150.237 62.0464 149.487 60.7689 149.839 59.4913 150.192 58.7412 151.513 59.0934 152.79Z" fill="#211715" transform="matrix(1.00233 0 0 1 261.144 162.189)"/><path d="M104.102 150.992C104.121 151.34 104.107 151.689 104.062 152.035L104.148 151.397C104.089 151.806 103.989 152.208 103.849 152.596 103.783 152.775 103.608 153.002 103.917 152.448 103.875 152.524 103.843 152.608 103.804 152.686 103.716 152.864 103.62 153.038 103.517 153.208 103.402 153.398 103.271 153.575 103.149 153.761 102.987 154.007 103.474 153.369 103.281 153.592 103.209 153.676 103.141 153.764 103.068 153.848 102.784 154.171 102.478 154.473 102.152 154.753 102.079 154.816 102.005 154.878 101.931 154.938L101.762 155.074 102.019 154.874C101.835 154.981 101.668 155.129 101.49 155.248 101.111 155.503 100.72 155.741 100.322 155.965 99.522 156.417 98.6933 156.817 97.8666 157.217 96.7283 157.89 96.3443 159.354 97.0058 160.499 97.6954 161.615 99.1393 161.994 100.288 161.359 102.424 160.457 104.389 159.196 106.099 157.63 107.912 155.902 108.928 153.5 108.905 150.995 108.905 149.67 107.831 148.596 106.506 148.596 105.181 148.596 104.106 149.67 104.106 150.995Z" fill="#211715" transform="matrix(1.00233 0 0 1 261.144 162.189)"/><path d="M91.4907 151.52C91.4207 151.737 91.3417 151.949 91.2617 152.162 91.1618 152.434 91.5057 151.624 91.3327 151.987 91.2797 152.099 91.2278 152.211 91.1718 152.322 90.9856 152.689 90.7752 153.044 90.542 153.384 90.472 153.484 90.399 153.584 90.3271 153.684 90.0931 154.008 90.627 153.321 90.437 153.541 90.2891 153.714 90.1451 153.888 89.9902 154.055 89.6945 154.373 89.379 154.672 89.0455 154.95 89.0055 154.983 88.8455 155.15 88.8046 155.15 88.8685 155.15 89.3044 154.774 88.9425 155.035 88.7579 155.168 88.569 155.294 88.3757 155.413 88.0072 155.642 87.6242 155.847 87.2291 156.026 86.7912 156.226 87.392 155.938 87.404 155.955 87.404 155.955 87.0731 156.081 87.0571 156.087 86.8632 156.154 86.6673 156.217 86.4693 156.277 86.033 156.401 85.5883 156.495 85.1388 156.556L85.7766 156.47C85.5706 156.496 85.3657 156.516 85.1598 156.531 83.8347 156.531 82.7606 157.605 82.7606 158.93 82.7606 160.255 83.8347 161.329 85.1598 161.329 90.2063 160.975 94.537 157.603 96.1181 152.797 96.4582 151.521 95.7122 150.208 94.4417 149.846 93.1681 149.525 91.8671 150.263 91.4907 151.522Z" fill="#211715" transform="matrix(1.00233 0 0 1 261.144 162.189)"/><path d="M48.5479 60.341C35.0244 67.3777 25.8364 80.9052 22.4416 95.6323 21.7488 98.6373 26.3743 99.9199 27.068 96.9079 28.7392 89.768 31.8157 83.0325 36.118 77.0944 40.0125 71.7857 45.0999 67.4664 50.9701 64.4846 53.7102 63.0581 51.286 58.9155 48.5479 60.341Z" fill="#211715" transform="matrix(1.00233 0 0 1 261.144 162.189)"/><path d="M21.223 103.092C16.222 110.156 14.0083 118.82 15.007 127.418 16.0002 135.144 19.9621 142.18 26.0534 147.036 30.041 150.148 34.5845 151.551 39.337 153.075 42.284 154.021 43.5466 149.389 40.6125 148.449 36.9018 147.258 33.243 146.26 29.9971 144.021 27.369 142.173 25.1435 139.811 23.4552 137.078 19.7731 131.084 18.6112 123.877 20.2233 117.03 21.1733 112.894 22.9203 108.982 25.3666 105.514 26.023 104.368 25.6401 102.908 24.5059 102.231 23.358 101.59 21.9086 101.97 21.223 103.092Z" fill="#211715" transform="matrix(1.00233 0 0 1 261.144 162.189)"/><path d="M80.1734 126.752C78.2041 127.361 73.6756 126.978 73.3017 123.262 73.3447 118.349 78.8199 118.074 81.389 119.721 83.4933 121.07 84.359 125.05 80.1734 126.752Z" fill="#211715" transform="matrix(1.00233 0 0 1 261.144 162.189)"/><path d="M77.8072 119.704C77.7315 119.747 77.6534 119.786 77.5733 119.82L78.1471 119.578C78.0235 119.63 77.8938 119.665 77.7612 119.684L78.399 119.598C78.2714 119.613 78.1424 119.611 78.0151 119.593L78.6529 119.679C78.579 119.668 78.505 119.654 78.431 119.64 78.1581 119.586 77.8802 119.556 77.6043 119.521 76.2936 119.556 75.2392 120.61 75.2051 121.921L75.29 122.558C75.4006 122.959 75.6131 123.323 75.9068 123.617L76.3927 123.993C76.7602 124.208 77.1785 124.321 77.6043 124.32L77.6163 124.32 76.9745 124.236C77.0695 124.249 77.1624 124.27 77.2564 124.287 77.5133 124.335 77.7742 124.364 78.0341 124.395 78.0898 124.402 78.1459 124.406 78.2021 124.408 78.2605 124.408 78.3189 124.405 78.377 124.399 78.6169 124.374 78.8609 124.344 79.0988 124.299 79.1318 124.293 79.1648 124.286 79.1987 124.278 79.2743 124.258 79.3484 124.233 79.4207 124.204 79.6967 124.102 79.9658 123.982 80.2264 123.846 81.0714 123.37 81.5293 122.417 81.373 121.46 81.3596 121.142 81.2612 120.834 81.0881 120.567L80.7132 120.082C80.4201 119.788 80.0551 119.575 79.6546 119.465L79.0168 119.379C78.5913 119.378 78.1733 119.491 77.8062 119.706Z" fill="#211715" transform="matrix(1.00233 0 0 1 261.144 162.189)"/><path d="M53.0134 107.183C52.2137 109.783 52.7135 115.744 57.6119 116.237 64.0858 116.181 64.4476 108.969 62.2774 105.583 60.4989 102.811 55.2557 101.666 53.0134 107.183Z" fill="#211715" transform="matrix(1.00233 0 0 1 261.144 162.189)"/><path d="M101.836 107.183C102.636 109.783 102.136 115.744 97.2378 116.238 90.7699 116.181 90.402 108.964 92.5693 105.583 94.3497 102.811 99.593 101.666 101.836 107.183Z" fill="#211715" transform="matrix(1.00233 0 0 1 261.144 162.189)"/><path d="M76.5296 135.61C77.4829 134.618 78.508 133.697 79.5966 132.855L79.1108 133.23 79.5306 132.911 76.6236 132.536C77.8279 133.468 78.9724 134.474 80.0505 135.549 80.995 136.478 82.5141 136.466 83.4433 135.521 84.3619 134.588 84.3619 133.09 83.4433 132.156 82.3656 131.081 81.221 130.074 80.0165 129.143 79.6307 128.795 79.1522 128.566 78.6389 128.483 78.1115 128.389 77.5677 128.49 77.1094 128.767 75.6938 129.808 74.3652 130.961 73.1368 132.217 72.2075 133.162 72.2198 134.681 73.1644 135.61 74.0981 136.529 75.5959 136.529 76.5296 135.61Z" fill="#211715" transform="matrix(1.00233 0 0 1 261.144 162.189)"/><path d="M75.9208 127.473 75.9208 130.283C75.956 131.593 77.0098 132.647 78.32 132.682 78.9564 132.681 79.5667 132.429 80.0195 131.982 80.4601 131.525 80.7103 130.918 80.7192 130.283L80.7192 127.473C80.6856 126.162 79.6309 125.107 78.32 125.074 77.6835 125.074 77.0729 125.325 76.6206 125.773 76.1793 126.23 75.929 126.838 75.9208 127.473Z" fill="#211715" transform="matrix(1.00233 0 0 1 261.144 162.189)"/><path d="M103.794 64.4846C109.663 67.4669 114.751 71.7862 118.646 77.0944 122.947 83.0328 126.023 89.7682 127.695 96.9079 128.388 99.9159 133.016 98.6423 132.322 95.6323 128.923 80.9042 119.739 67.3817 106.215 60.344 103.48 58.9195 101.05 63.0591 103.794 64.4876Z" fill="#211715" transform="matrix(1.00233 0 0 1 261.144 162.189)"/><path d="M75.275 59.8801C75.51 50.8212 75.8459 41.7262 74.9172 32.6892 74.0514 24.272 72.284 15.171 67.5966 7.96336 65.4783 4.70644 62.5713 1.58947 58.7145 0.499834 54.2145-0.783798 49.3771 0.62482 46.2697 4.12363 43.1467 7.51351 41.5912 12.077 40.6195 16.5045 39.5677 21.4552 39.2591 26.5349 39.7038 31.5765 40.2847 37.257 41.419 42.8671 43.0907 48.327 44.5927 53.7601 46.588 59.0447 49.0517 64.1147 49.7285 65.2539 51.2006 65.6288 52.3398 64.952 53.4675 64.282 53.8481 62.8307 53.1944 61.6935 51.2491 57.6898 49.6356 53.5332 48.37 49.2657 46.9875 44.9105 45.8797 40.473 45.0531 35.9791 44.2765 31.4842 44.0963 26.9066 44.5172 22.3646 44.8141 18.1672 45.9154 14.0661 47.7612 10.2846 49.4746 7.06966 52.3826 4.31057 56.2813 4.85939 59.4043 5.29924 61.7075 7.73144 63.365 10.2466 67.4986 16.5155 69.2061 24.4819 70.0318 31.8394 71.0774 41.1494 70.7236 50.5332 70.4816 59.8811 70.4017 62.9701 75.2001 62.9681 75.28 59.8811Z" fill="#211715" transform="matrix(1.00233 0 0 1 261.144 162.189)"/><path d="M84.372 59.8801C83.9851 51.6071 84.0332 43.3194 84.516 35.0514 85.1258 27.3629 86.5413 19.2416 90.2231 12.3729 91.6776 9.6598 93.6759 6.72477 96.576 5.41321 99.9349 3.89471 103.357 5.26525 105.587 7.96536 108.114 11.0263 109.168 15.3189 109.879 19.1337 110.635 23.562 110.764 28.0749 110.261 32.5392 109.632 37.6123 108.542 42.6176 107.006 47.4933 105.65 52.3754 103.86 57.1262 101.656 61.6885 101.016 62.8382 101.394 64.2885 102.515 64.9785 103.661 65.6349 105.121 65.2519 105.798 64.1177 108.002 59.6064 109.822 54.9177 111.24 50.1014 112.747 45.3546 113.899 40.5021 114.685 35.5842 115.464 30.4677 115.524 25.2675 114.864 20.1343 114.241 15.6008 113.085 10.7594 110.637 6.83873 108.217 2.95302 104.307-0.0569811 99.567 0 95.4109 0.15746 91.5481 2.18258 89.0545 5.51117 83.7412 12.055 81.504 20.8791 80.3724 29.0724 78.9608 39.293 79.3057 49.5996 79.5726 59.8811 79.6526 62.9631 84.452 62.9751 84.371 59.8811Z" fill="#211715" transform="matrix(1.00233 0 0 1 261.144 162.189)"/><path d="M129.397 105.514C133.812 111.641 135.824 119.175 135.05 126.687 134.221 133.288 130.828 139.297 125.604 143.417 122.19 146.057 118.192 147.152 114.15 148.449 111.221 149.388 112.474 154.023 115.426 153.075 119.565 151.748 123.734 150.586 127.338 148.061 130.538 145.815 133.263 142.957 135.355 139.654 139.678 132.635 141.08 124.201 139.259 116.161 138.239 111.469 136.296 107.027 133.543 103.093 132.853 101.978 131.409 101.599 130.261 102.232 129.126 102.908 128.743 104.369 129.4 105.515Z" fill="#211715" transform="matrix(1.00233 0 0 1 261.144 162.189)"/><path d="M121.368 152.491C134.12 159.261 143.632 170.852 147.782 184.681 149.713 191.214 150.814 198.676 149.559 205.444 148.387 211.791 145.154 217.575 140.362 221.899 134.993 226.671 128.043 229.281 120.86 229.224 117.772 229.224 117.767 234.022 120.86 234.022 135.807 234.026 149.007 224.275 153.396 209.986 155.634 202.523 155.011 194.259 153.288 186.752 151.549 179.181 148.301 172.037 143.74 165.748 138.492 158.515 131.671 152.567 123.79 148.354 121.066 146.902 118.639 151.043 121.369 152.496Z" fill="#211715" transform="matrix(1.00233 0 0 1 261.144 162.189)"/><path d="M30.9277 148.351C16.9572 155.885 6.61826 168.738 2.25325 183.999 0.141953 191.469-0.799735 199.834 0.824727 207.49 2.36115 214.547 6.131 220.92 11.5752 225.665 17.8005 231.045 25.7608 233.993 33.9887 233.966 37.0767 233.966 37.0817 229.168 33.9887 229.168 20.9429 229.201 9.46511 220.558 5.89205 208.011 4.05566 201.369 4.73043 194.024 6.3249 187.397 8.00027 180.462 11.0233 173.925 15.222 168.157 20.011 161.639 26.2075 156.285 33.3509 152.491 36.073 151.031 33.6508 146.887 30.9287 148.349Z" fill="#211715" transform="matrix(1.00233 0 0 1 261.144 162.189)"/><path d="M110.251 225.38C112.257 225.086 114.122 226.474 114.415 228.48 114.512 229.141 114.427 229.815 114.169 230.431 112.944 233.285 109.171 235.166 106.365 235.953 103.457 236.768 99.7099 236.87 97.2408 234.841 95.1255 233.101 94.8566 230.077 97.2338 228.499 100.61 226.258 105.576 226.007 109.439 226.728 110.712 227.044 112.009 226.307 112.39 225.052 112.729 223.776 111.984 222.464 110.714 222.101 105.561 221.14 99.3541 221.442 94.8116 224.356 92.5402 225.702 91.0342 228.038 90.7459 230.663 90.5808 233.119 91.401 235.541 93.0252 237.391 96.3681 241.359 102.355 241.874 107.086 240.723 111.816 239.573 117.397 236.286 118.913 231.369 120.246 226.918 117.718 222.228 113.266 220.895 111.872 220.477 110.394 220.428 108.976 220.753 107.705 221.115 106.959 222.428 107.299 223.705 107.676 224.964 108.978 225.703 110.251 225.38Z" fill="#211715" transform="matrix(1.00233 0 0 1 261.144 162.189)"/><path d="M45.4109 226.725C49.1055 225.995 52.9339 226.382 56.4073 227.837 57.6962 228.269 58.7299 229.246 59.2334 230.509 59.5009 231.774 59.1778 233.092 58.3557 234.089 56.4833 236.475 52.7265 236.796 49.9674 236.294 46.7825 235.713 43.2467 234.08 41.2703 231.415 40.3087 230.233 40.1302 228.596 40.8145 227.234 41.5536 225.875 43.0695 225.131 44.5962 225.377 45.8688 225.691 47.1648 224.956 47.5472 223.702 47.888 222.426 47.1424 221.112 45.8718 220.75 40.5306 219.789 35.3043 223.708 35.6012 229.367 35.8861 234.804 41.2823 238.472 45.9338 240.163 50.6022 241.863 56.4383 241.81 60.4829 238.642 64.4966 235.498 65.5733 229.195 61.5956 225.546 57.1451 221.46 49.7605 221.048 44.1334 222.098 42.8636 222.461 42.118 223.773 42.4569 225.049 42.8325 226.309 44.1349 227.048 45.4089 226.725Z" fill="#211715" transform="matrix(1.00233 0 0 1 261.144 162.189)"/><path d="M101.266 28.5785C101.072 27.3858 100.253 26.3889 99.1211 25.9664 97.9746 25.7271 96.7878 26.1226 96.0142 27.002 95.202 27.8266 94.5812 28.8198 94.1958 29.9111 91.4823 38.5351 89.9686 47.4915 89.6973 56.5283 89.6265 57.1549 89.8674 57.7765 90.342 58.1917 91.6839 58.9854 93.1632 59.5191 94.7026 59.7652 95.2446 59.8943 95.8145 59.8347 96.3181 59.5962 96.688 59.376 96.9476 59.0096 97.0328 58.5876 98.4854 52.8645 99.505 47.9351 100.541 42.4679 101.266 38.684 101.604 34.8361 101.551 30.9837 101.545 30.174 101.449 29.3674 101.266 28.5785Z" fill="#F8B8B4" transform="matrix(1.00233 0 0 1 261.144 162.189)"/><path d="M53.8262 29.5312C54.0209 28.3384 54.84 27.3414 55.9724 26.9191 57.1194 26.6791 58.3067 27.0748 59.0804 27.9547 59.8925 28.7799 60.5136 29.7733 60.8998 30.8648 63.6128 39.4885 65.1265 48.4446 65.3983 57.4809 65.4698 58.1077 65.2288 58.7296 64.7535 59.1444 63.4117 59.938 61.9324 60.4718 60.393 60.7179 59.8521 60.8473 59.2832 60.788 58.7805 60.5499 58.4102 60.3296 58.1505 59.9628 58.0658 59.5403 56.6132 53.8172 55.5936 48.8888 54.5579 43.4206 53.8319 39.6371 53.493 35.7896 53.5462 31.9374 53.5517 31.1275 53.6455 30.3207 53.8262 29.5312Z" fill="#F8B8B4" transform="matrix(1.00233 0 0 1 261.144 162.189)"/><path d="M51.8428 210.53C68.8652 209.045 85.9845 209.045 103.007 210.53 104.328 210.52 105.396 209.452 105.406 208.131 105.38 206.817 104.321 205.758 103.007 205.732 85.9845 204.246 68.8652 204.246 51.8428 205.732 50.5322 205.766 49.4777 206.82 49.4436 208.131 49.4529 209.452 50.5216 210.521 51.8428 210.53Z" fill="#211715" transform="matrix(1.00233 0 0 1 261.144 162.189)"/><path d="M77.4623 195.702C71.3032 195.58 66.2113 200.474 66.0892 206.633 66.0868 206.758 66.0864 206.882 66.0881 207.006 66.0881 213.826 70.8375 218.523 77.4633 218.523 84.344 218.523 88.8375 213.782 88.8375 207.006 88.9278 200.853 84.0124 195.791 77.8588 195.701 77.7267 195.699 77.5945 195.699 77.4623 195.702Z" fill="#FFFFFF" transform="matrix(1.00233 0 0 1 261.144 162.189)"/><path d="M77.4623 193.303C71.4661 193.28 66.1459 197.144 64.3117 202.853 62.5863 208.341 64.3383 214.329 68.7502 218.022 73.403 221.479 79.6476 221.898 84.7199 219.091 89.7492 216.216 91.8635 210.259 91.0338 204.709 89.9198 198.093 84.1714 193.262 77.4623 193.303 74.3733 193.263 74.3723 198.061 77.4623 198.101 81.4184 198.028 84.9384 200.601 86.0695 204.392 87.1643 207.971 86.0613 211.86 83.2504 214.331 81.8374 215.363 80.1608 215.974 78.415 216.092 76.5155 216.27 74.6044 215.907 72.9018 215.047 69.7081 213.158 67.9817 209.518 68.5393 205.85 69.1001 201.369 72.9468 198.03 77.4623 198.104 80.5473 198.061 80.5563 193.263 77.4623 193.303Z" fill="#211715" transform="matrix(1.00233 0 0 1 261.144 162.189)"/><path d="M49.4436 202.21 49.4436 222.943C49.4436 226.03 54.242 226.035 54.242 222.943L54.242 202.21C54.242 199.122 49.4436 199.117 49.4436 202.21Z" fill="#211715" transform="matrix(1.00233 0 0 1 261.144 162.189)"/><path d="M101.383 202.21 101.383 222.943C101.383 226.03 106.182 226.035 106.182 222.943L106.182 202.21C106.182 199.122 101.383 199.117 101.383 202.21Z" fill="#211715" transform="matrix(1.00233 0 0 1 261.144 162.189)"/><path d="M267.56 262.013C261.424 261.906 255.207 261.769 249.33 261.595 229.863 261.017 222.713 247.231 233.693 231.144L265.004 222.947 265.004 208.131C282.287 206.641 299.666 206.663 316.945 208.197 316.945 213.112 316.945 218.027 316.945 222.942L347.48 231.139C358.459 247.226 351.31 261.012 331.842 261.59 318.16 261.996 302.636 262.19 290.588 262.306 283.714 262.248 275.709 262.156 267.56 262.013Z" fill="#FEBE69" transform="matrix(1.00233 0 0 1 261.144 162.189)"/><path d="M253.136 150.762C251.41 150.202 249.656 149.712 247.948 149.107 228.549 158.156 216.005 177.472 215.629 198.875 215.629 199.139 215.618 199.404 215.618 199.669 215.261 216.925 228.961 231.204 246.218 231.561 246.426 231.565 246.635 231.567 246.844 231.567L247.153 231.567 265.005 222.943 265.005 208.131C282.288 206.641 299.667 206.663 316.946 208.197 316.946 213.112 316.946 218.027 316.946 222.942L334.022 231.621 334.331 231.621C351.595 231.607 365.578 217.6 365.563 200.336 365.563 200.132 365.561 199.927 365.557 199.723 365.557 199.458 365.546 199.194 365.546 198.929 365.175 177.479 352.571 158.129 333.101 149.12 331.401 149.719 329.665 150.205 327.951 150.761 327.951 150.761 318.733 159.284 289.823 159.284 271.249 159.285 253.136 150.762 253.136 150.762Z" fill="#F8B8B4" transform="matrix(1.00233 0 0 1 261.144 162.189)"/><path d="M286.039 59.8801C286.433 44.5732 287.251 27.02 280.594 12.6308 278.945 9.066 275.624 3.9337 271.076 2.76308 268.356 1.95005 265.413 2.43296 263.096 4.07265 260.645 5.93928 258.801 8.4896 257.798 11.4022 256.078 16.0041 255.16 20.8665 255.083 25.7785 254.991 30.6227 255.51 35.4593 256.628 40.1737 258.241 47.6676 260.653 54.9671 263.821 61.9475 258.839 64.2633 254.377 67.5615 250.702 71.6442 243.341 79.3417 237.023 93.453 237.026 103.519 231.547 110.698 229.288 119.827 230.785 128.733 232.385 137.174 238.072 144.882 245.945 148.318 246.669 148.635 247.407 148.918 248.153 149.175 249.797 149.746 251.479 150.219 253.136 150.757 253.136 150.757 271.249 159.28 289.824 159.28 318.734 159.28 327.952 150.757 327.952 150.757 330.361 149.975 332.823 149.331 335.144 148.318 343.016 144.882 348.705 137.174 350.303 128.733 351.801 119.827 349.541 110.698 344.062 103.519 344.062 93.453 337.747 79.3457 330.386 71.6442 326.73 67.5809 322.293 64.295 317.34 61.9824 320.515 54.9913 322.931 47.68 324.547 40.1737 325.665 35.4592 326.184 30.6227 326.092 25.7785 326.015 20.8665 325.096 16.004 323.377 11.4022 322.374 8.48931 320.53 5.93885 318.079 4.07265 315.761 2.43296 312.818 1.95005 310.098 2.76308 305.551 3.93769 302.23 9.066 300.58 12.6308 293.924 27.02 294.742 44.5732 295.135 59.8801Z" fill="#FFFFFF" transform="matrix(1.00233 0 0 1 261.144 162.189)"/><path d="M342.558 105.514C346.973 111.641 348.985 119.175 348.212 126.687 347.382 133.288 343.989 139.297 338.767 143.417 335.352 146.057 331.353 147.152 327.311 148.449 324.382 149.388 325.635 154.023 328.587 153.075 332.727 151.748 336.895 150.586 340.499 148.061 343.699 145.815 346.422 142.958 348.513 139.655 352.835 132.635 354.234 124.202 352.412 116.162 351.392 111.47 349.449 107.028 346.696 103.094 346.006 101.979 344.563 101.6 343.414 102.233 342.279 102.909 341.896 104.37 342.553 105.516Z" fill="#211715" transform="matrix(1.00233 0 0 1 261.144 162.189)"/><path d="M231.747 229.751C226.119 237.912 223.132 249.674 231.047 257.467 234.856 261.214 240.098 262.985 245.295 263.665 248.549 263.998 251.82 264.161 255.091 264.15 258.883 264.246 262.675 264.326 266.469 264.392 280.731 264.649 294.973 264.705 309.236 264.483 316.624 264.369 324.012 264.23 331.396 264.006 336.925 263.839 342.738 262.843 347.398 259.664 351.811 256.747 354.616 251.945 354.989 246.668 355.429 240.627 352.774 234.617 349.417 229.749 348.727 228.633 347.283 228.254 346.134 228.888 345 229.565 344.617 231.025 345.274 232.171 347.973 236.09 350.196 240.741 350.233 245.351 350.338 248.981 348.761 252.456 345.96 254.769 344.458 255.977 342.766 256.928 340.952 257.583 338.618 258.408 336.184 258.916 333.714 259.094 326.806 259.627 319.791 259.506 312.864 259.625 299.661 259.852 286.473 259.902 273.27 259.705 266.167 259.599 259.065 259.454 251.963 259.269 246.904 259.131 241.756 258.795 237.34 256.247 236.427 255.743 235.577 255.132 234.809 254.426 234.086 253.781 233.445 253.048 232.903 252.245 231.849 250.651 231.192 248.827 230.986 246.927 230.516 241.671 232.851 236.567 235.885 232.171 236.541 231.025 236.158 229.565 235.024 228.888 233.877 228.246 232.427 228.627 231.742 229.749Z" fill="#211715" transform="matrix(1.00233 0 0 1 261.144 162.189)"/><path d="M322.775 223.067C326.021 222.378 329.212 224.451 329.9 227.698 330.114 228.704 330.066 229.749 329.76 230.732 329.135 232.418 328.028 233.884 326.576 234.946 323.59 237.389 319.876 238.771 316.019 238.875 313.255 239.026 310.54 238.102 308.442 236.298 306.457 234.414 305.59 231.236 306.872 228.819 307.881 226.92 309.943 225.82 311.986 225.137 315.611 223.931 319.487 223.682 323.238 224.415" fill="#FFFFFF" transform="matrix(1.00233 0 0 1 261.144 162.189)"/><path d="M257.934 224.415C261.685 223.682 265.561 223.931 269.187 225.137 271.229 225.819 273.291 226.917 274.3 228.819 275.582 231.236 274.714 234.417 272.73 236.298 270.631 238.102 267.916 239.026 265.152 238.875 261.295 238.771 257.582 237.389 254.596 234.946 253.144 233.884 252.036 232.418 251.412 230.732 250.426 227.562 252.196 224.194 255.365 223.208 256.347 222.902 257.391 222.854 258.397 223.067" fill="#FFFFFF" transform="matrix(1.00233 0 0 1 261.144 162.189)"/><path d="M261.713 60.341C248.19 67.3817 239.002 80.9052 235.607 95.6293 234.914 98.6343 239.54 99.9169 240.233 96.9049 241.904 89.765 244.981 83.0295 249.283 77.0914 253.178 71.7827 258.265 67.4634 264.135 64.4816 266.876 63.0551 264.451 58.9125 261.713 60.338Z" fill="#211715" transform="matrix(1.00233 0 0 1 261.144 162.189)"/><path d="M234.384 103.092C229.383 110.156 227.17 118.82 228.168 127.418 229.163 135.145 233.127 142.182 239.221 147.036 243.207 150.148 247.751 151.551 252.503 153.075 255.45 154.021 256.713 149.389 253.779 148.449 250.068 147.258 246.409 146.26 243.163 144.021 240.535 142.173 238.31 139.811 236.622 137.078 232.939 131.084 231.778 123.877 233.39 117.03 234.34 112.894 236.087 108.982 238.533 105.514 239.189 104.368 238.806 102.908 237.672 102.231 236.524 101.59 235.075 101.97 234.389 103.092Z" fill="#211715" transform="matrix(1.00233 0 0 1 261.144 162.189)"/><path d="M293.336 126.752C291.366 127.361 286.838 126.978 286.464 123.262 286.507 118.349 291.982 118.074 294.551 119.721 296.655 121.07 297.52 125.05 293.336 126.752Z" fill="#211715" transform="matrix(1.00233 0 0 1 261.144 162.189)"/><path d="M290.969 119.704C290.893 119.747 290.815 119.786 290.735 119.82L291.308 119.578C291.185 119.63 291.055 119.665 290.923 119.684L291.56 119.598C291.433 119.613 291.304 119.611 291.176 119.593L291.814 119.679C291.74 119.668 291.666 119.654 291.592 119.64 291.319 119.586 291.042 119.556 290.766 119.521 290.444 119.507 290.125 119.579 289.841 119.728 288.966 120.111 288.391 120.966 288.366 121.921L288.451 122.558C288.562 122.959 288.775 123.324 289.069 123.617L289.554 123.993C289.922 124.208 290.34 124.321 290.766 124.32L290.778 124.32 290.14 124.234C290.24 124.247 290.328 124.268 290.422 124.285 290.679 124.333 290.94 124.362 291.199 124.393 291.255 124.4 291.311 124.404 291.367 124.406 291.426 124.406 291.484 124.403 291.542 124.397 291.782 124.372 292.026 124.342 292.264 124.297 292.297 124.291 292.33 124.284 292.364 124.276 292.44 124.256 292.514 124.231 292.586 124.202 292.862 124.1 293.131 123.98 293.392 123.844 294.238 123.367 294.696 122.412 294.537 121.454 294.524 121.136 294.426 120.828 294.252 120.561L293.878 120.076C293.584 119.782 293.219 119.569 292.819 119.459L292.181 119.373C291.756 119.372 291.338 119.485 290.971 119.7Z" fill="#211715" transform="matrix(1.00233 0 0 1 261.144 162.189)"/><path d="M266.175 107.183C265.375 109.783 265.875 115.744 270.773 116.237 277.247 116.181 277.609 108.969 275.439 105.583 273.66 102.811 268.417 101.666 266.175 107.183Z" fill="#211715" transform="matrix(1.00233 0 0 1 261.144 162.189)"/><path d="M314.996 107.183C315.795 109.783 315.295 115.744 310.397 116.238 303.924 116.181 303.561 108.968 305.732 105.583 307.511 102.811 312.754 101.666 314.996 107.183Z" fill="#211715" transform="matrix(1.00233 0 0 1 261.144 162.189)"/><path d="M289.691 135.61C290.644 134.618 291.669 133.697 292.758 132.855L292.272 133.23 292.692 132.911 289.785 132.536C290.989 133.468 292.134 134.474 293.212 135.549 294.178 136.456 295.696 136.409 296.603 135.443 297.471 134.519 297.47 133.079 296.602 132.156 295.524 131.081 294.379 130.074 293.175 129.143 292.789 128.795 292.311 128.566 291.797 128.483 291.27 128.389 290.726 128.49 290.268 128.767 288.852 129.808 287.524 130.961 286.295 132.217 285.366 133.162 285.378 134.681 286.323 135.61 287.256 136.529 288.754 136.529 289.688 135.61Z" fill="#211715" transform="matrix(1.00233 0 0 1 261.144 162.189)"/><path d="M289.082 127.473 289.082 130.283C289.117 131.593 290.171 132.647 291.481 132.682 292.118 132.681 292.728 132.429 293.181 131.982 293.621 131.525 293.872 130.918 293.881 130.283L293.881 127.473C293.847 126.162 292.792 125.107 291.481 125.074 290.845 125.074 290.234 125.325 289.782 125.773 289.341 126.23 289.09 126.838 289.082 127.473Z" fill="#211715" transform="matrix(1.00233 0 0 1 261.144 162.189)"/><path d="M316.955 64.4846C322.825 67.4669 327.912 71.7862 331.807 77.0944 336.109 83.0328 339.185 89.7682 340.856 96.9079 341.55 99.9159 346.177 98.6423 345.483 95.6323 342.085 80.9042 332.901 67.3817 319.376 60.344 316.641 58.9195 314.212 63.0591 316.955 64.4876Z" fill="#211715" transform="matrix(1.00233 0 0 1 261.144 162.189)"/><path d="M288.438 59.8801C288.673 50.8212 289.009 41.7262 288.081 32.6892 287.215 24.272 285.447 15.171 280.76 7.96336 278.639 4.70644 275.733 1.58947 271.876 0.499834 267.375-0.78284 262.537 0.627373 259.431 4.12763 256.308 7.51751 254.753 12.081 253.781 16.5085 252.729 21.4592 252.42 26.5389 252.865 31.5805 253.446 37.261 254.58 42.8711 256.252 48.331 257.754 53.7628 259.75 59.046 262.213 64.1147 262.873 65.2635 264.34 65.6594 265.489 64.999 266.638 64.3385 267.033 62.8719 266.373 61.7232 266.367 61.7133 266.362 61.7034 266.356 61.6936 264.41 57.6898 262.797 53.5332 261.531 49.2657 260.149 44.9106 259.041 40.473 258.214 35.9791 257.438 31.4842 257.258 26.9066 257.679 22.3646 257.975 18.1672 259.077 14.0661 260.923 10.2846 262.636 7.06966 265.542 4.31057 269.44 4.85939 272.563 5.29924 274.866 7.73144 276.523 10.2466 280.657 16.5155 282.364 24.4819 283.19 31.8394 284.236 41.1494 283.882 50.5332 283.64 59.8811 283.56 62.9701 288.358 62.9681 288.438 59.8811Z" fill="#211715" transform="matrix(1.00233 0 0 1 261.144 162.189)"/><path d="M297.531 59.8801C297.144 51.6071 297.193 43.3194 297.675 35.0514 298.285 27.3629 299.701 19.2416 303.382 12.3729 304.837 9.6598 306.835 6.72477 309.735 5.41321 313.094 3.89471 316.516 5.26525 318.746 7.96536 321.273 11.0263 322.327 15.3189 323.038 19.1337 323.795 23.562 323.924 28.0749 323.421 32.5392 322.791 37.6123 321.701 42.6176 320.165 47.4933 318.81 52.3754 317.019 57.1262 314.816 61.6885 314.175 62.8387 314.555 64.2892 315.676 64.9785 316.822 65.6349 318.283 65.2519 318.959 64.1177 321.163 59.6064 322.983 54.9177 324.401 50.1014 325.909 45.3546 327.06 40.5021 327.846 35.5842 328.625 30.4677 328.686 25.2675 328.025 20.1343 327.402 15.6008 326.246 10.7594 323.799 6.83873 321.378 2.95302 317.469-0.0569811 312.731 0 308.574 0.156329 304.71 2.18115 302.216 5.51017 296.903 12.054 294.665 20.8781 293.534 29.0714 292.122 39.292 292.467 49.5986 292.734 59.8801 292.814 62.9621 297.613 62.9741 297.532 59.8801Z" fill="#211715" transform="matrix(1.00233 0 0 1 261.144 162.189)"/><path d="M334.529 152.491C347.282 159.26 356.794 170.852 360.943 184.681 362.875 191.214 363.975 198.676 362.721 205.444 361.548 211.791 358.316 217.575 353.524 221.899 348.153 226.674 341.202 229.285 334.016 229.227 330.928 229.227 330.923 234.025 334.016 234.025 348.964 234.029 362.163 224.277 366.552 209.989 368.791 202.526 368.167 194.262 366.445 186.755 364.705 179.184 361.458 172.04 356.897 165.751 351.649 158.518 344.827 152.57 336.946 148.357 334.222 146.905 331.795 151.046 334.525 152.499Z" fill="#211715" transform="matrix(1.00233 0 0 1 261.144 162.189)"/><path d="M244.089 148.351C230.118 155.885 219.78 168.738 215.415 183.999 213.303 191.471 212.357 199.837 213.986 207.491 215.523 214.548 219.292 220.921 224.736 225.666 230.963 231.045 238.924 233.992 247.152 233.963 250.24 233.963 250.245 229.165 247.152 229.165 234.105 229.199 222.627 220.556 219.053 208.008 217.217 201.366 217.892 194.021 219.486 187.394 221.162 180.459 224.185 173.922 228.383 168.154 233.172 161.636 239.369 156.282 246.512 152.488 249.234 151.028 246.812 146.884 244.09 148.346Z" fill="#211715" transform="matrix(1.00233 0 0 1 261.144 162.189)"/><path d="M323.413 225.38C325.419 225.086 327.283 226.474 327.577 228.48 327.674 229.141 327.588 229.815 327.33 230.431 326.105 233.285 322.332 235.166 319.526 235.953 316.618 236.768 312.871 236.87 310.402 234.841 308.287 233.101 308.018 230.077 310.395 228.499 313.771 226.258 318.737 226.007 322.6 226.728 323.873 227.044 325.17 226.307 325.551 225.052 325.891 223.776 325.146 222.463 323.876 222.101 318.722 221.14 312.515 221.442 307.973 224.356 305.702 225.702 304.196 228.038 303.907 230.663 303.742 233.119 304.562 235.541 306.187 237.391 309.529 241.359 315.516 241.874 320.247 240.723 324.977 239.573 330.558 236.286 332.074 231.369 333.407 226.918 330.879 222.228 326.428 220.895 325.034 220.477 323.556 220.428 322.137 220.753 320.867 221.115 320.121 222.428 320.461 223.705 320.837 224.964 322.139 225.703 323.413 225.38Z" fill="#211715" transform="matrix(1.00233 0 0 1 261.144 162.189)"/><path d="M258.572 226.725C262.267 225.995 266.095 226.382 269.569 227.837 270.858 228.269 271.891 229.246 272.395 230.509 272.662 231.774 272.339 233.092 271.517 234.089 269.645 236.475 265.888 236.796 263.129 236.294 259.944 235.713 256.408 234.08 254.432 231.415 253.47 230.233 253.292 228.596 253.976 227.234 254.715 225.875 256.231 225.131 257.758 225.377 259.03 225.691 260.326 224.956 260.709 223.702 261.049 222.426 260.304 221.112 259.033 220.75 253.692 219.789 248.466 223.708 248.763 229.367 249.047 234.804 254.444 238.472 259.095 240.163 263.764 241.863 269.6 241.81 273.644 238.642 277.658 235.498 278.735 229.195 274.757 225.546 270.306 221.46 262.922 221.048 257.295 222.098 256.025 222.461 255.279 223.773 255.618 225.049 255.994 226.309 257.296 227.048 258.57 226.725Z" fill="#211715" transform="matrix(1.00233 0 0 1 261.144 162.189)"/><path d="M314.429 28.5785C314.235 27.3857 313.416 26.3885 312.283 25.9664 311.137 25.7271 309.95 26.1226 309.176 27.002 308.364 27.8266 307.744 28.8198 307.358 29.9111 304.645 38.5352 303.131 47.4916 302.86 56.5283 302.789 57.1549 303.03 57.7765 303.504 58.1917 304.846 58.9854 306.325 59.5191 307.865 59.7652 308.407 59.8943 308.977 59.8347 309.48 59.5962 309.85 59.376 310.11 59.0096 310.195 58.5876 311.648 52.8645 312.667 47.9351 313.703 42.4679 314.428 38.684 314.767 34.8361 314.714 30.9837 314.707 30.174 314.612 29.3674 314.429 28.5785Z" fill="#F8B8B4" transform="matrix(1.00233 0 0 1 261.144 162.189)"/><path d="M266.987 29.5312C267.182 28.3384 268.001 27.3414 269.134 26.9191 270.28 26.6799 271.466 27.0755 272.24 27.9547 273.052 28.7799 273.673 29.7733 274.059 30.8648 276.772 39.4885 278.286 48.4446 278.558 57.4809 278.628 58.1086 278.385 58.7306 277.908 59.1444 276.566 59.938 275.087 60.4718 273.547 60.7179 273.006 60.8478 272.436 60.7885 271.933 60.5499 271.563 60.3296 271.303 59.9628 271.218 59.5403 269.766 53.8172 268.746 48.8888 267.71 43.4206 266.984 39.6371 266.645 35.7896 266.699 31.9374 266.707 31.1272 266.804 30.3204 266.988 29.5312Z" fill="#F8B8B4" transform="matrix(1.00233 0 0 1 261.144 162.189)"/><path d="M265.004 210.53C282.026 209.045 299.146 209.045 316.168 210.53 317.489 210.52 318.557 209.452 318.567 208.131 318.541 206.817 317.482 205.758 316.168 205.732 299.146 204.246 282.026 204.246 265.004 205.732 263.694 205.766 262.639 206.82 262.605 208.131 262.614 209.452 263.683 210.521 265.004 210.53Z" fill="#211715" transform="matrix(1.00233 0 0 1 261.144 162.189)"/><path d="M262.605 202.21 262.605 222.943C262.605 226.03 267.403 226.035 267.403 222.943L267.403 202.21C267.403 199.122 262.605 199.117 262.605 202.21Z" fill="#211715" transform="matrix(1.00233 0 0 1 261.144 162.189)"/><path d="M314.545 202.21 314.545 222.943C314.545 226.03 319.343 226.035 319.343 222.943L319.343 202.21C319.343 199.122 314.545 199.117 314.545 202.21Z" fill="#211715" transform="matrix(1.00233 0 0 1 261.144 162.189)"/><path d="M285.46 167.177C281.688 171.253 279.145 176.312 278.124 181.772 277.805 183.045 278.542 184.345 279.799 184.724 281.075 185.059 282.385 184.315 282.75 183.047 282.939 181.891 283.211 180.75 283.564 179.633 283.743 179.067 283.948 178.51 284.164 177.956 284.228 177.792 284.277 177.675 284.18 177.906 284.238 177.768 284.299 177.63 284.361 177.493 284.5 177.183 284.645 176.876 284.797 176.571 285.345 175.468 285.967 174.403 286.657 173.383 286.833 173.121 287.013 172.864 287.197 172.61 287.29 172.482 287.383 172.355 287.478 172.228 287.502 172.195 287.768 171.849 287.652 171.997 287.536 172.145 287.81 171.802 287.836 171.771 287.936 171.646 288.038 171.522 288.14 171.399 288.374 171.12 288.612 170.846 288.854 170.574 289.784 169.63 289.771 168.111 288.827 167.182 287.893 166.263 286.395 166.263 285.461 167.182Z" fill="#211715" transform="matrix(1.00233 0 0 1 261.144 162.189)"/><path d="M306.504 174.277C308.198 173.221 309.159 171.307 308.995 169.318 308.79 167.399 307.855 165.633 306.382 164.387 304.007 162.278 301.074 160.9 297.934 160.418 294.847 159.884 290.951 159.793 289.127 162.901 286.9 166.695 291.367 170.093 294.125 171.869 295.842 172.953 297.675 173.839 299.591 174.512 301.819 175.438 304.339 175.352 306.499 174.277 307.644 173.608 308.029 172.139 307.36 170.994 306.691 169.85 305.221 169.465 304.077 170.134 303.694 170.334 303.927 170.227 304.023 170.186 303.87 170.246 303.714 170.297 303.555 170.341 303.555 170.341 303.178 170.407 303.379 170.384 303.637 170.354 303.057 170.384 303.009 170.384 302.445 170.384 301.887 170.275 301.365 170.061 300.191 169.68 299.057 169.182 297.981 168.576 297.419 168.27 296.869 167.941 296.334 167.588 296.088 167.426 295.845 167.26 295.606 167.089 295.506 167.016 295.406 166.942 295.306 166.867 295.554 167.053 295.146 166.741 295.106 166.707 294.632 166.32 294.178 165.912 293.743 165.482 293.631 165.371 293.506 165.258 293.406 165.138 293.461 165.204 293.669 165.338 293.488 165.205 293.273 165.048 293.555 165.44 293.477 165.178 293.462 165.129 293.339 164.678 293.34 164.678 293.391 164.678 293.34 165.078 293.34 165.101 293.367 165.433 293.468 164.943 293.316 165.201 293.316 165.211 293.153 165.54 293.116 165.507 293.099 165.491 293.358 165.265 293.386 165.227 293.186 165.494 293.206 165.336 293.372 165.238 293.484 165.172 293.6 165.106 293.709 165.038 293.756 165.009 294.05 164.882 293.762 165.001 293.442 165.133 293.894 164.977 293.962 164.952 294.094 164.901 294.361 164.933 293.827 164.959 293.919 164.959 294.011 164.939 294.103 164.935 294.327 164.925 294.55 164.909 294.775 164.908 295.329 164.912 295.882 164.945 296.432 165.008 295.914 164.955 296.774 165.069 296.881 165.089 297.138 165.137 297.395 165.191 297.65 165.25 298.24 165.383 298.822 165.548 299.395 165.744 299.644 165.828 299.888 165.922 300.134 166.011 300.208 166.037 300.561 166.188 300.173 166.02 300.273 166.063 300.373 166.108 300.473 166.154 300.978 166.383 301.466 166.646 301.936 166.941 302.067 167.025 302.72 167.555 302.301 167.174 302.529 167.382 302.77 167.573 302.996 167.785 303.221 167.997 303.443 168.232 303.665 168.459 303.977 168.778 303.792 168.597 303.72 168.501 303.83 168.65 303.93 168.804 304.02 168.965 304.053 169.023 304.236 169.434 304.135 169.17 304.034 168.906 304.22 169.522 304.217 169.51 304.207 169.476 304.191 169.156 304.209 169.426 304.219 169.599 304.219 169.773 304.209 169.947 304.236 169.398 303.987 170.403 304.22 169.947 304.235 169.916 304.02 170.311 304.008 170.303 303.916 170.242 304.649 169.803 304.088 170.144 302.944 170.812 302.559 172.282 303.227 173.426 303.896 174.571 305.366 174.956 306.51 174.287Z" fill="#211715" transform="matrix(1.00233 0 0 1 261.144 162.189)"/><path d="M276.922 170.134C276.511 169.881 276.813 170.085 276.895 170.125L276.948 170.209C277.039 170.351 277.019 170.321 276.889 170.119 276.857 170.119 276.73 169.758 276.833 170.031 276.936 170.304 276.817 169.885 276.793 169.822 276.7 169.58 276.801 169.879 276.801 169.942 276.801 169.805 276.801 169.662 276.794 169.524 276.787 169.386 276.894 169.147 276.794 169.505 276.833 169.363 276.87 169.221 276.914 169.08 276.791 169.473 277.072 168.831 277.164 168.68 277.204 168.612 277.44 168.342 277.195 168.628 277.27 168.54 277.347 168.454 277.425 168.369 277.614 168.169 277.812 167.969 278.016 167.781 278.136 167.668 278.259 167.558 278.383 167.45 278.427 167.411 278.883 167.029 278.614 167.244 278.397 167.415 278.887 167.058 278.992 166.99 279.217 166.844 279.45 166.707 279.686 166.577 279.901 166.459 280.121 166.347 280.343 166.241L280.636 166.105C281.261 165.812 280.394 166.193 280.771 166.048 281.858 165.624 282.981 165.302 284.128 165.085 284.246 165.063 284.912 164.96 284.68 164.99 284.402 165.025 284.758 164.983 284.791 164.98 284.932 164.967 285.072 164.952 285.213 164.942 285.746 164.899 286.28 164.893 286.813 164.925 286.936 164.933 287.06 164.95 287.183 164.956 287.144 164.956 286.777 164.838 286.973 164.933 287.198 165.04 287.483 165.166 287.129 164.949 287.36 165.07 287.584 165.203 287.8 165.349 287.649 165.231 287.606 165.099 287.763 165.361 287.899 165.589 287.832 165.49 287.736 165.322 287.515 164.934 287.67 165.073 287.696 165.244 287.686 165.179 287.567 164.678 287.668 164.677 287.63 164.677 287.5 165.494 287.534 165.193 287.558 164.977 287.489 165.237 287.469 165.293 287.569 165.001 287.603 165.149 287.435 165.305 287.168 165.552 286.917 165.816 286.647 166.06 286.434 166.252 286.217 166.439 285.996 166.622 285.869 166.722 285.741 166.833 285.61 166.933 285.655 166.899 285.818 166.775 285.598 166.933 285.054 167.333 284.492 167.707 283.912 168.057 282.753 168.763 281.53 169.358 280.259 169.834 279.888 169.97 279.512 170.108 279.131 170.214 279.001 170.251 278.871 170.28 278.739 170.314 278.576 170.34 278.562 170.35 278.698 170.341L278.418 170.366C278.229 170.379 278.04 170.378 277.85 170.38 277.769 170.38 277.408 170.349 277.681 170.394 277.522 170.36 277.364 170.318 277.21 170.267 276.758 170.135 277.332 170.345 276.924 170.131 275.776 169.493 274.329 169.872 273.641 170.991 272.988 172.138 273.37 173.596 274.502 174.274 278.236 176.231 282.399 174.445 285.78 172.528 287.344 171.642 288.804 170.583 290.131 169.371 291.58 168.042 292.749 166.195 292.35 164.139 291.855 162.368 290.486 160.975 288.724 160.45 287.378 160.06 285.961 159.975 284.578 160.202 281.276 160.481 278.118 161.679 275.462 163.659 273.887 164.774 272.727 166.381 272.163 168.226 271.548 170.535 272.49 172.977 274.497 174.274 275.641 174.943 277.111 174.558 277.78 173.413 278.449 172.269 278.063 170.799 276.919 170.131Z" fill="#211715" transform="matrix(1.00233 0 0 1 261.144 162.189)"/><path d="M316.646 151.938C312.69 153.736 308.615 155.26 304.45 156.499 302.239 157.173 300.009 157.781 297.76 158.325 296.815 158.552 295.866 158.767 294.914 158.969 294.805 158.992 293.332 159.307 293.947 159.207 293.78 159.234 293.606 159.24 293.438 159.257 292.438 159.357 291.403 159.543 290.397 159.557 289.547 159.524 288.701 159.441 287.861 159.31 287.633 159.286 287.404 159.268 287.177 159.239 286.977 159.214 286.751 159.152 287.087 159.216 285.999 159.011 284.915 158.788 283.835 158.547 281.644 158.062 279.466 157.517 277.303 156.913 272.444 155.6 267.686 153.937 263.067 151.938 261.917 151.312 260.479 151.689 259.784 152.798 259.126 153.944 259.509 155.406 260.645 156.081 265.024 158.006 269.523 159.646 274.114 160.991 278.311 162.366 282.618 163.379 286.988 164.018 288.053 164.14 289.158 164.332 290.23 164.355 291.067 164.327 291.901 164.251 292.729 164.126 296.569 163.637 300.357 162.8 304.045 161.626 309.186 160.163 314.208 158.309 319.067 156.082 320.203 155.407 320.586 153.945 319.928 152.799 319.24 151.681 317.794 151.301 316.646 151.939Z" fill="#211715" transform="matrix(1.00233 0 0 1 261.144 162.189)"/><path d="M291.94 170.359C292.153 170.608 292.364 170.859 292.571 171.113 292.673 171.241 292.775 171.368 292.876 171.496 292.749 171.332 292.772 171.364 292.944 171.59 293.324 172.109 293.697 172.631 294.044 173.17 294.732 174.223 295.35 175.321 295.893 176.456 296.027 176.735 296.155 177.017 296.28 177.301 296.101 176.894 296.447 177.717 296.48 177.794 296.7 178.363 296.9 178.939 297.08 179.522 297.432 180.675 297.703 181.851 297.89 183.042 298.247 184.317 299.565 185.066 300.842 184.719 302.095 184.334 302.83 183.039 302.518 181.767 301.532 176.265 299.046 171.143 295.333 166.966 294.394 166.034 292.879 166.034 291.94 166.966 291.036 167.916 291.036 169.408 291.94 170.359Z" fill="#211715" transform="matrix(1.00233 0 0 1 261.144 162.189)"/></g></svg>